<?xml version="1.0" encoding="UTF-8"?>
<!DOCTYPE svg PUBLIC "-//W3C//DTD SVG 1.1//EN" "http://www.w3.org/Graphics/SVG/1.1/DTD/svg11.dtd">
<svg xmlns="http://www.w3.org/2000/svg" version="1.1" width="433px" height="577px" style="shape-rendering:geometricPrecision; text-rendering:geometricPrecision; image-rendering:optimizeQuality; fill-rule:evenodd; clip-rule:evenodd" xmlns:xlink="http://www.w3.org/1999/xlink">
<g><path style="opacity:0.004" fill="#000000" d="M 346.5,16.5 C 347.833,17.1667 347.833,17.1667 346.5,16.5 Z"/></g>
<g><path style="opacity:0.004" fill="#000000" d="M 182.5,22.5 C 183.833,23.1667 183.833,23.1667 182.5,22.5 Z"/></g>
<g><path style="opacity:0.004" fill="#000000" d="M 260.5,34.5 C 261.833,35.1667 261.833,35.1667 260.5,34.5 Z"/></g>
<g><path style="opacity:0.004" fill="#000000" d="M 252.5,38.5 C 253.833,39.1667 253.833,39.1667 252.5,38.5 Z"/></g>
<g><path style="opacity:0.004" fill="#000000" d="M 175.5,40.5 C 176.833,41.1667 176.833,41.1667 175.5,40.5 Z"/></g>
<g><path style="opacity:0.004" fill="#000000" d="M 299.5,43.5 C 300.833,44.1667 300.833,44.1667 299.5,43.5 Z"/></g>
<g><path style="opacity:0.004" fill="#000000" d="M 367.5,46.5 C 368.833,47.1667 368.833,47.1667 367.5,46.5 Z"/></g>
<g><path style="opacity:0.004" fill="#000000" d="M 344.5,72.5 C 345.833,73.1667 345.833,73.1667 344.5,72.5 Z"/></g>
<g><path style="opacity:0.004" fill="#fefffe" d="M 343.5,97.5 C 344.833,98.1667 344.833,98.1667 343.5,97.5 Z"/></g>
<g><path style="opacity:0.004" fill="#000000" d="M 387.5,102.5 C 388.833,103.167 388.833,103.167 387.5,102.5 Z"/></g>
<g><path style="opacity:0.004" fill="#fefffe" d="M 367.5,104.5 C 368.833,105.167 368.833,105.167 367.5,104.5 Z"/></g>
<g><path style="opacity:0.004" fill="#fefffe" d="M 362.5,109.5 C 363.833,110.167 363.833,110.167 362.5,109.5 Z"/></g>
<g><path style="opacity:0.004" fill="#feff00" d="M 102.5,123.5 C 103.833,124.167 103.833,124.167 102.5,123.5 Z"/></g>
<g><path style="opacity:0.004" fill="#fefffe" d="M 9.5,129.5 C 10.8333,130.167 10.8333,130.167 9.5,129.5 Z"/></g>
<g><path style="opacity:0.004" fill="#fefffe" d="M 115.5,133.5 C 116.833,134.167 116.833,134.167 115.5,133.5 Z"/></g>
<g><path style="opacity:0.004" fill="#fe0000" d="M 48.5,148.5 C 49.8333,149.167 49.8333,149.167 48.5,148.5 Z"/></g>
<g><path style="opacity:0.004" fill="#fefffe" d="M 267.5,160.5 C 268.833,161.167 268.833,161.167 267.5,160.5 Z"/></g>
<g><path style="opacity:0.004" fill="#fefffe" d="M 104.5,162.5 C 105.833,163.167 105.833,163.167 104.5,162.5 Z"/></g>
<g><path style="opacity:0.004" fill="#fefffe" d="M 288.5,163.5 C 289.833,164.167 289.833,164.167 288.5,163.5 Z"/></g>
<g><path style="opacity:0.004" fill="#fefffe" d="M 402.5,172.5 C 403.833,173.167 403.833,173.167 402.5,172.5 Z"/></g>
<g><path style="opacity:0.004" fill="#fefffe" d="M 352.5,176.5 C 353.833,177.167 353.833,177.167 352.5,176.5 Z"/></g>
<g><path style="opacity:0.004" fill="#fefffe" d="M 283.5,177.5 C 284.833,178.167 284.833,178.167 283.5,177.5 Z"/></g>
<g><path style="opacity:0.004" fill="#fefffe" d="M 44.5,185.5 C 45.8333,186.167 45.8333,186.167 44.5,185.5 Z"/></g>
<g><path style="opacity:0.004" fill="#fefffe" d="M 312.5,186.5 C 313.833,187.167 313.833,187.167 312.5,186.5 Z"/></g>
<g><path style="opacity:0.004" fill="#fefffe" d="M 365.5,191.5 C 366.833,192.167 366.833,192.167 365.5,191.5 Z"/></g>
<g><path style="opacity:0.004" fill="#fefffe" d="M 50.5,193.5 C 51.8333,194.167 51.8333,194.167 50.5,193.5 Z"/></g>
<g><path style="opacity:0.004" fill="#fefffe" d="M 411.5,204.5 C 412.833,205.167 412.833,205.167 411.5,204.5 Z"/></g>
<g><path style="opacity:0.004" fill="#fefffe" d="M 0.5,218.5 C 1.83333,219.167 1.83333,219.167 0.5,218.5 Z"/></g>
<g><path style="opacity:0.004" fill="#fefffe" d="M 334.5,228.5 C 335.833,229.167 335.833,229.167 334.5,228.5 Z"/></g>
<g><path style="opacity:0.004" fill="#fefffe" d="M 7.5,231.5 C 6.83333,230.167 6.83333,230.167 7.5,231.5 Z"/></g>
<g><path style="opacity:0.004" fill="#fefffe" d="M 7.5,231.5 C 8.83333,232.167 8.83333,232.167 7.5,231.5 Z"/></g>
<g><path style="opacity:0.004" fill="#fefffe" d="M 99.5,235.5 C 100.833,236.167 100.833,236.167 99.5,235.5 Z"/></g>
<g><path style="opacity:0.004" fill="#fefffe" d="M 332.5,235.5 C 333.833,236.167 333.833,236.167 332.5,235.5 Z"/></g>
<g><path style="opacity:0.004" fill="#fefffe" d="M 192.5,239.5 C 193.833,240.167 193.833,240.167 192.5,239.5 Z"/></g>
<g><path style="opacity:0.004" fill="#fefffe" d="M 232.5,239.5 C 233.833,240.167 233.833,240.167 232.5,239.5 Z"/></g>
<g><path style="opacity:0.004" fill="#fefffe" d="M 78.5,246.5 C 79.8333,247.167 79.8333,247.167 78.5,246.5 Z"/></g>
<g><path style="opacity:0.004" fill="#fefffe" d="M 101.5,268.5 C 102.833,269.167 102.833,269.167 101.5,268.5 Z"/></g>
<g><path style="opacity:0.004" fill="#fefffe" d="M 2.5,269.5 C 3.83333,270.167 3.83333,270.167 2.5,269.5 Z"/></g>
<g><path style="opacity:0.004" fill="#fefffe" d="M 31.5,272.5 C 32.8333,273.167 32.8333,273.167 31.5,272.5 Z"/></g>
<g><path style="opacity:0.004" fill="#fefffe" d="M 395.5,272.5 C 396.833,273.167 396.833,273.167 395.5,272.5 Z"/></g>
<g><path style="opacity:0.639" fill="#848194" d="M 141.5,315.5 C 138.941,315.198 136.607,315.532 134.5,316.5C 133.833,316.5 133.167,316.5 132.5,316.5C 132.5,316.167 132.5,315.833 132.5,315.5C 135.604,314.225 138.604,314.225 141.5,315.5 Z"/></g>
<g><path style="opacity:0.847" fill="#696483" d="M 134.5,316.5 C 136.607,315.532 138.941,315.198 141.5,315.5C 142.492,315.328 143.158,315.662 143.5,316.5C 142.791,317.404 141.791,317.737 140.5,317.5C 138.735,316.539 136.735,316.205 134.5,316.5 Z"/></g>
<g><path style="opacity:0.004" fill="#fefffe" d="M 352.5,315.5 C 353.833,316.167 353.833,316.167 352.5,315.5 Z"/></g>
<g><path style="opacity:0.141" fill="#9d9ab2" d="M 134.5,316.5 C 136.735,316.205 138.735,316.539 140.5,317.5C 137.794,317.575 135.127,317.908 132.5,318.5C 133.167,317.833 133.833,317.167 134.5,316.5 Z"/></g>
<g><path style="opacity:1" fill="#4d4a68" d="M 127.5,316.5 C 129.256,317.552 129.923,319.219 129.5,321.5C 128.833,321.5 128.167,321.5 127.5,321.5C 127.5,320.167 127.5,318.833 127.5,317.5C 127.5,317.167 127.5,316.833 127.5,316.5 Z"/></g>
<g><path style="opacity:0.608" fill="#9693a6" d="M 132.5,315.5 C 132.5,315.833 132.5,316.167 132.5,316.5C 130.618,317.221 130.285,318.221 131.5,319.5C 131.167,320.5 130.5,321.167 129.5,321.5C 129.923,319.219 129.256,317.552 127.5,316.5C 127.369,315.624 127.702,314.957 128.5,314.5C 129.736,315.246 131.07,315.579 132.5,315.5 Z"/></g>
<g><path style="opacity:0.792" fill="#6c6a82" d="M 132.5,316.5 C 133.167,316.5 133.833,316.5 134.5,316.5C 133.833,317.167 133.167,317.833 132.5,318.5C 132.5,319.167 132.167,319.5 131.5,319.5C 130.285,318.221 130.618,317.221 132.5,316.5 Z"/></g>
<g><path style="opacity:0.788" fill="#817e8f" d="M 143.5,316.5 C 145.997,317.129 147.33,318.796 147.5,321.5C 146.662,321.842 146.328,322.508 146.5,323.5C 146.167,323.5 145.833,323.5 145.5,323.5C 145.211,320.221 143.544,318.221 140.5,317.5C 141.791,317.737 142.791,317.404 143.5,316.5 Z"/></g>
<g><path style="opacity:0.847" fill="#5e5977" d="M 127.5,321.5 C 128.167,321.5 128.833,321.5 129.5,321.5C 129.833,322.833 130.167,324.167 130.5,325.5C 129.833,325.5 129.167,325.5 128.5,325.5C 128.5,324.833 128.167,324.5 127.5,324.5C 127.5,323.5 127.5,322.5 127.5,321.5 Z"/></g>
<g><path style="opacity:0.835" fill="#6e687e" d="M 147.5,321.5 C 148.833,324.167 148.833,326.833 147.5,329.5C 147.167,329.5 146.833,329.5 146.5,329.5C 146.5,327.5 146.5,325.5 146.5,323.5C 146.328,322.508 146.662,321.842 147.5,321.5 Z"/></g>
<g><path style="opacity:0.737" fill="#8b889b" d="M 174.5,328.5 C 173.493,330.361 173.16,333.028 173.5,336.5C 172.191,332.649 172.191,328.649 173.5,324.5C 175.534,325.574 175.867,326.907 174.5,328.5 Z"/></g>
<g><path style="opacity:0.239" fill="#a59eb8" d="M 145.5,323.5 C 145.833,323.5 146.167,323.5 146.5,323.5C 146.5,325.5 146.5,327.5 146.5,329.5C 146.167,329.5 145.833,329.5 145.5,329.5C 145.242,327.81 145.242,325.81 145.5,323.5 Z"/></g>
<g><path style="opacity:0.004" fill="#fefffe" d="M 202.5,326.5 C 203.833,327.167 203.833,327.167 202.5,326.5 Z"/></g>
<g><path style="opacity:0.384" fill="#91899d" d="M 127.5,317.5 C 127.5,318.833 127.5,320.167 127.5,321.5C 127.5,322.5 127.5,323.5 127.5,324.5C 127.577,328.215 127.244,331.881 126.5,335.5C 126.167,335.5 125.833,335.5 125.5,335.5C 125.982,329.34 126.649,323.34 127.5,317.5 Z"/></g>
<g><path style="opacity:0.984" fill="#3f3c5d" d="M 127.5,324.5 C 128.167,324.5 128.5,324.833 128.5,325.5C 128.5,328.833 128.5,332.167 128.5,335.5C 127.833,335.5 127.167,335.5 126.5,335.5C 127.244,331.881 127.577,328.215 127.5,324.5 Z"/></g>
<g><path style="opacity:0.667" fill="#7a748f" d="M 145.5,329.5 C 145.833,329.5 146.167,329.5 146.5,329.5C 146.833,329.5 147.167,329.5 147.5,329.5C 147.567,330.959 147.234,332.292 146.5,333.5C 145.662,333.158 145.328,332.492 145.5,331.5C 145.5,330.833 145.5,330.167 145.5,329.5 Z"/></g>
<g><path style="opacity:0.004" fill="#fefffe" d="M 114.5,330.5 C 115.833,331.167 115.833,331.167 114.5,330.5 Z"/></g>
<g><path style="opacity:0.505" fill="#908ca8" d="M 218.5,332.5 C 227.402,331.185 236.402,331.185 245.5,332.5C 243.735,333.461 241.735,333.795 239.5,333.5C 235.32,333.762 231.32,333.762 227.5,333.5C 224.713,332.523 221.713,332.19 218.5,332.5 Z"/></g>
<g><path style="opacity:0.357" fill="#7f7b99" d="M 128.5,325.5 C 129.167,325.5 129.833,325.5 130.5,325.5C 129.676,328.764 129.342,332.098 129.5,335.5C 129.167,335.5 128.833,335.5 128.5,335.5C 128.5,332.167 128.5,328.833 128.5,325.5 Z"/></g>
<g><path style="opacity:0.78" fill="#8e8cac" d="M 214.5,332.5 C 214.5,332.833 214.5,333.167 214.5,333.5C 213.167,333.5 211.833,333.5 210.5,333.5C 209.5,333.5 208.5,333.5 207.5,333.5C 209.495,331.289 211.828,330.956 214.5,332.5 Z"/></g>
<g><path style="opacity:0.741" fill="#8889a5" d="M 214.5,332.5 C 215.833,332.5 217.167,332.5 218.5,332.5C 221.713,332.19 224.713,332.523 227.5,333.5C 222.919,334.49 218.253,335.157 213.5,335.5C 213.5,335.167 213.5,334.833 213.5,334.5C 214.167,334.5 214.5,334.167 214.5,333.5C 214.5,333.167 214.5,332.833 214.5,332.5 Z"/></g>
<g><path style="opacity:0.522" fill="#9895a9" d="M 245.5,332.5 C 247.735,332.205 249.735,332.539 251.5,333.5C 250.791,334.404 249.791,334.737 248.5,334.5C 245.287,334.81 242.287,334.477 239.5,333.5C 241.735,333.795 243.735,333.461 245.5,332.5 Z"/></g>
<g><path style="opacity:0.639" fill="#928e9a" d="M 145.5,331.5 C 145.328,332.492 145.662,333.158 146.5,333.5C 146.598,335.553 145.931,337.22 144.5,338.5C 144.672,337.508 144.338,336.842 143.5,336.5C 143.796,334.597 144.463,332.93 145.5,331.5 Z"/></g>
<g><path style="opacity:0.808" fill="#7c7aa0" d="M 203.5,334.5 C 204.568,333.566 205.901,333.232 207.5,333.5C 208.5,333.5 209.5,333.5 210.5,333.5C 210.5,334.167 210.5,334.833 210.5,335.5C 209.5,335.5 208.5,335.5 207.5,335.5C 206.432,334.566 205.099,334.232 203.5,334.5 Z"/></g>
<g><path style="opacity:0.51" fill="#9a95aa" d="M 251.5,333.5 C 252.959,333.433 254.292,333.766 255.5,334.5C 255.5,335.167 255.167,335.5 254.5,335.5C 252.265,335.795 250.265,335.461 248.5,334.5C 249.791,334.737 250.791,334.404 251.5,333.5 Z"/></g>
<g><path style="opacity:0.978" fill="#6b6c90" d="M 184.5,322.5 C 184.779,327.595 184.445,332.595 183.5,337.5C 182.369,338.202 182.036,336.868 182.5,333.5C 182.335,329.818 182.501,326.152 183,322.5C 183.69,321.262 184.19,321.262 184.5,322.5 Z"/></g>
<g><path style="opacity:0.6" fill="#757189" d="M 202.5,334.5 C 202.833,334.5 203.167,334.5 203.5,334.5C 205.099,334.232 206.432,334.566 207.5,335.5C 206.508,335.328 205.842,335.662 205.5,336.5C 204.167,336.5 202.833,336.5 201.5,336.5C 200.761,336.631 200.094,336.464 199.5,336C 200.737,335.768 201.737,335.268 202.5,334.5 Z"/></g>
<g><path style="opacity:0.322" fill="#a9a7ae" d="M 255.5,334.5 C 257.579,334.971 259.579,335.637 261.5,336.5C 261.5,337.167 261.167,337.5 260.5,337.5C 258.302,337.125 256.302,336.458 254.5,335.5C 255.167,335.5 255.5,335.167 255.5,334.5 Z"/></g>
<g><path style="opacity:0.004" fill="#fefffe" d="M 341.5,335.5 C 342.833,336.167 342.833,336.167 341.5,335.5 Z"/></g>
<g><path style="opacity:0.749" fill="#918da8" d="M 202.5,334.5 C 201.737,335.268 200.737,335.768 199.5,336C 200.094,336.464 200.761,336.631 201.5,336.5C 199.4,338.273 197.066,338.606 194.5,337.5C 196.647,335.337 199.314,334.337 202.5,334.5 Z"/></g>
<g><path style="opacity:0.941" fill="#5e5b8c" d="M 210.5,333.5 C 211.833,333.5 213.167,333.5 214.5,333.5C 214.5,334.167 214.167,334.5 213.5,334.5C 212.833,335.5 212.167,336.5 211.5,337.5C 211.672,336.508 211.338,335.842 210.5,335.5C 210.5,334.833 210.5,334.167 210.5,333.5 Z"/></g>
<g><path style="opacity:0.937" fill="#42406e" d="M 126.5,335.5 C 127.167,335.5 127.833,335.5 128.5,335.5C 128.5,339.167 128.5,342.833 128.5,346.5C 127.097,343.091 126.43,339.425 126.5,335.5 Z"/></g>
<g><path style="opacity:0.694" fill="#7e798e" d="M 143.5,336.5 C 144.338,336.842 144.672,337.508 144.5,338.5C 142.588,340.657 140.921,342.991 139.5,345.5C 138.833,345.167 138.167,344.833 137.5,344.5C 139.147,341.527 141.147,338.86 143.5,336.5 Z"/></g>
<g><path style="opacity:1" fill="#8a8db2" d="M 182.5,333.5 C 182.036,336.868 182.369,338.202 183.5,337.5C 184.434,338.568 184.768,339.901 184.5,341.5C 183.833,341.5 183.167,341.5 182.5,341.5C 182.5,340.833 182.167,340.5 181.5,340.5C 181.198,337.941 181.532,335.607 182.5,333.5 Z"/></g>
<g><path style="opacity:0.796" fill="#7f7fa1" d="M 184.5,322.5 C 185.493,331.318 185.827,340.318 185.5,349.5C 185.813,353.042 185.479,356.375 184.5,359.5C 184.5,359.167 184.5,358.833 184.5,358.5C 184.5,352.833 184.5,347.167 184.5,341.5C 184.768,339.901 184.434,338.568 183.5,337.5C 184.445,332.595 184.779,327.595 184.5,322.5 Z"/></g>
<g><path style="opacity:0.027" fill="#adabc7" d="M 205.5,336.5 C 205.842,335.662 206.508,335.328 207.5,335.5C 208.5,335.5 209.5,335.5 210.5,335.5C 211.338,335.842 211.672,336.508 211.5,337.5C 211.5,338.167 211.5,338.833 211.5,339.5C 210.596,338.791 210.263,337.791 210.5,336.5C 208.833,336.5 207.167,336.5 205.5,336.5 Z"/></g>
<g><path style="opacity:0.255" fill="#adabaf" d="M 261.5,336.5 C 263.434,337.11 265.101,338.11 266.5,339.5C 265.833,339.5 265.167,339.5 264.5,339.5C 263.005,339.011 261.671,338.345 260.5,337.5C 261.167,337.5 261.5,337.167 261.5,336.5 Z"/></g>
<g><path style="opacity:0.047" fill="#c8c4ca" d="M 264.5,339.5 C 265.167,339.5 265.833,339.5 266.5,339.5C 268.027,339.427 269.027,340.094 269.5,341.5C 268.833,341.5 268.5,341.833 268.5,342.5C 268.167,342.5 267.833,342.5 267.5,342.5C 266.9,341.1 265.9,340.1 264.5,339.5 Z"/></g>
<g><path style="opacity:0.788" fill="#757491" d="M 174.5,328.5 C 175.2,332.798 175.533,337.131 175.5,341.5C 175.806,344.385 175.473,347.052 174.5,349.5C 173.8,345.202 173.467,340.869 173.5,336.5C 173.16,333.028 173.493,330.361 174.5,328.5 Z"/></g>
<g><path style="opacity:0.004" fill="#fefffe" d="M 43.5,341.5 C 44.8333,342.167 44.8333,342.167 43.5,341.5 Z"/></g>
<g><path style="opacity:1" fill="#9fa2c2" d="M 182.5,341.5 C 183.167,341.5 183.833,341.5 184.5,341.5C 184.5,347.167 184.5,352.833 184.5,358.5C 183.833,355.167 183.167,351.833 182.5,348.5C 182.5,346.167 182.5,343.833 182.5,341.5 Z"/></g>
<g><path style="opacity:0.875" fill="#817da1" d="M 213.5,334.5 C 213.5,334.833 213.5,335.167 213.5,335.5C 213.5,336.5 213.5,337.5 213.5,338.5C 213.784,340.415 213.451,342.081 212.5,343.5C 211.566,342.432 211.232,341.099 211.5,339.5C 211.5,338.833 211.5,338.167 211.5,337.5C 212.167,336.5 212.833,335.5 213.5,334.5 Z"/></g>
<g><path style="opacity:0.757" fill="#898698" d="M 269.5,341.5 C 272.5,341.167 273.833,342.5 273.5,345.5C 273.882,350.28 273.549,353.614 272.5,355.5C 272.813,351.958 272.479,348.625 271.5,345.5C 271.5,345.167 271.5,344.833 271.5,344.5C 270.5,343.833 269.5,343.167 268.5,342.5C 268.5,341.833 268.833,341.5 269.5,341.5 Z"/></g>
<g><path style="opacity:0.408" fill="#8d8ba9" d="M 128.5,335.5 C 128.833,335.5 129.167,335.5 129.5,335.5C 128.892,340.944 129.558,345.944 131.5,350.5C 131.5,350.833 131.5,351.167 131.5,351.5C 130.5,351.5 129.5,351.5 128.5,351.5C 128.5,350.5 128.5,349.5 128.5,348.5C 128.5,347.833 128.5,347.167 128.5,346.5C 128.5,342.833 128.5,339.167 128.5,335.5 Z"/></g>
<g><path style="opacity:0.431" fill="#ada9b6" d="M 267.5,342.5 C 267.833,342.5 268.167,342.5 268.5,342.5C 269.5,343.167 270.5,343.833 271.5,344.5C 268.911,344.461 266.911,345.461 265.5,347.5C 265.672,346.508 265.338,345.842 264.5,345.5C 265.167,344.167 266.167,343.167 267.5,342.5 Z"/></g>
<g><path style="opacity:0.975" fill="#6c6b96" d="M 125.5,335.5 C 125.833,335.5 126.167,335.5 126.5,335.5C 126.43,339.425 127.097,343.091 128.5,346.5C 128.5,347.167 128.5,347.833 128.5,348.5C 127.833,348.5 127.167,348.5 126.5,348.5C 126.737,347.209 126.404,346.209 125.5,345.5C 125.5,342.167 125.5,338.833 125.5,335.5 Z"/></g>
<g><path style="opacity:0.816" fill="#918d9b" d="M 137.5,344.5 C 138.167,344.833 138.833,345.167 139.5,345.5C 138.833,346.833 137.833,347.833 136.5,348.5C 136.672,347.508 136.338,346.842 135.5,346.5C 135.833,345.5 136.5,344.833 137.5,344.5 Z"/></g>
<g><path style="opacity:0.718" fill="#88859e" d="M 213.5,338.5 C 214.468,340.607 214.802,342.941 214.5,345.5C 214.737,346.791 214.404,347.791 213.5,348.5C 212.962,346.883 212.629,345.216 212.5,343.5C 213.451,342.081 213.784,340.415 213.5,338.5 Z"/></g>
<g><path style="opacity:0.188" fill="#a6a2ae" d="M 199.5,350.5 C 199.784,348.585 199.451,346.919 198.5,345.5C 198.369,344.624 198.702,343.957 199.5,343.5C 200.797,345.973 200.797,348.307 199.5,350.5 Z"/></g>
<g><path style="opacity:0.686" fill="#858194" d="M 135.5,346.5 C 136.338,346.842 136.672,347.508 136.5,348.5C 136.167,349.5 135.5,350.167 134.5,350.5C 134.158,349.662 133.492,349.328 132.5,349.5C 133.167,348.167 134.167,347.167 135.5,346.5 Z"/></g>
<g><path style="opacity:0.827" fill="#9693a1" d="M 209.5,350.5 C 209.158,349.662 208.492,349.328 207.5,349.5C 208.292,344.659 209.292,344.492 210.5,349C 210.43,349.765 210.097,350.265 209.5,350.5 Z"/></g>
<g><path style="opacity:0.814" fill="#636083" d="M 126.5,348.5 C 127.167,348.5 127.833,348.5 128.5,348.5C 128.5,349.5 128.5,350.5 128.5,351.5C 127.662,351.842 127.328,352.508 127.5,353.5C 127.5,354.167 127.167,354.5 126.5,354.5C 126.5,352.5 126.5,350.5 126.5,348.5 Z"/></g>
<g><path style="opacity:0.816" fill="#817b96" d="M 132.5,349.5 C 133.492,349.328 134.158,349.662 134.5,350.5C 133.833,351.833 132.833,352.833 131.5,353.5C 131.5,352.833 131.5,352.167 131.5,351.5C 131.5,351.167 131.5,350.833 131.5,350.5C 131.5,349.833 131.833,349.5 132.5,349.5 Z"/></g>
<g><path style="opacity:0.667" fill="#87889d" d="M 181.5,340.5 C 182.167,340.5 182.5,340.833 182.5,341.5C 182.5,343.833 182.5,346.167 182.5,348.5C 182.552,350.903 182.219,353.236 181.5,355.5C 180.833,356.833 180.167,358.167 179.5,359.5C 180.047,353.147 180.714,346.814 181.5,340.5 Z"/></g>
<g><path style="opacity:0.545" fill="#9c9ab6" d="M 214.5,345.5 C 215.434,346.568 215.768,347.901 215.5,349.5C 214.549,350.919 214.216,352.585 214.5,354.5C 214.5,356.5 214.5,358.5 214.5,360.5C 214.167,360.5 213.833,360.5 213.5,360.5C 213.5,356.5 213.5,352.5 213.5,348.5C 214.404,347.791 214.737,346.791 214.5,345.5 Z"/></g>
<g><path style="opacity:0.494" fill="#aba7ad" d="M 264.5,345.5 C 265.338,345.842 265.672,346.508 265.5,347.5C 265.634,349.292 265.301,350.958 264.5,352.5C 263.833,352.5 263.167,352.5 262.5,352.5C 263.167,350.167 263.833,347.833 264.5,345.5 Z"/></g>
<g><path style="opacity:0.059" fill="#c2c1d3" d="M 271.5,345.5 C 272.479,348.625 272.813,351.958 272.5,355.5C 271.833,355.5 271.5,355.833 271.5,356.5C 271.296,353.082 271.296,349.416 271.5,345.5 Z"/></g>
<g><path style="opacity:1" fill="#656094" d="M 198.5,345.5 C 199.451,346.919 199.784,348.585 199.5,350.5C 199.557,351.609 199.89,352.609 200.5,353.5C 199.833,355.5 199.167,357.5 198.5,359.5C 198.5,357.833 198.5,356.167 198.5,354.5C 197.459,351.542 197.459,348.542 198.5,345.5 Z"/></g>
<g><path style="opacity:0.796" fill="#727095" d="M 207.5,349.5 C 208.492,349.328 209.158,349.662 209.5,350.5C 209.5,351.5 209.5,352.5 209.5,353.5C 208.518,356.962 208.185,360.629 208.5,364.5C 207.517,360.702 207.183,356.702 207.5,352.5C 207.5,351.5 207.5,350.5 207.5,349.5 Z"/></g>
<g><path style="opacity:0.6" fill="#7a7b9f" d="M 128.5,351.5 C 129.5,351.5 130.5,351.5 131.5,351.5C 131.5,352.167 131.5,352.833 131.5,353.5C 131.5,354.167 131.167,354.5 130.5,354.5C 130.539,352.776 130.206,352.443 129.5,353.5C 128.833,353.5 128.167,353.5 127.5,353.5C 127.328,352.508 127.662,351.842 128.5,351.5 Z"/></g>
<g><path style="opacity:1" fill="#8787af" d="M 198.5,345.5 C 197.459,348.542 197.459,351.542 198.5,354.5C 197.833,354.5 197.167,354.5 196.5,354.5C 196.5,353.833 196.167,353.5 195.5,353.5C 196.129,350.603 197.129,347.936 198.5,345.5 Z"/></g>
<g><path style="opacity:0.733" fill="#7c7a8f" d="M 175.5,341.5 C 176.487,346.305 176.821,351.305 176.5,356.5C 176.672,357.492 176.338,358.158 175.5,358.5C 174.841,355.545 174.508,352.545 174.5,349.5C 175.473,347.052 175.806,344.385 175.5,341.5 Z"/></g>
<g><path style="opacity:0.91" fill="#9594b2" d="M 215.5,349.5 C 216.5,351.5 217.5,353.5 218.5,355.5C 218.5,355.833 218.5,356.167 218.5,356.5C 217.849,357.091 217.182,357.757 216.5,358.5C 215.828,357.051 215.161,355.718 214.5,354.5C 214.216,352.585 214.549,350.919 215.5,349.5 Z"/></g>
<g><path style="opacity:0.004" fill="#fefffe" d="M 397.5,353.5 C 398.833,354.167 398.833,354.167 397.5,353.5 Z"/></g>
<g><path style="opacity:1" fill="#3c3e69" d="M 127.5,353.5 C 128.167,353.5 128.833,353.5 129.5,353.5C 129.218,354.778 128.551,355.778 127.5,356.5C 126.58,357.067 126.246,356.401 126.5,354.5C 127.167,354.5 127.5,354.167 127.5,353.5 Z"/></g>
<g><path style="opacity:0.531" fill="#abacce" d="M 196.5,354.5 C 197.167,354.5 197.833,354.5 198.5,354.5C 198.5,356.167 198.5,357.833 198.5,359.5C 197.833,358.833 197.167,358.167 196.5,357.5C 196.5,356.5 196.5,355.5 196.5,354.5 Z"/></g>
<g><path style="opacity:0.576" fill="#aeacb8" d="M 262.5,352.5 C 263.167,352.5 263.833,352.5 264.5,352.5C 265.219,354.764 265.552,357.097 265.5,359.5C 264.662,359.842 264.328,360.508 264.5,361.5C 263.343,358.727 262.676,355.727 262.5,352.5 Z"/></g>
<g><path style="opacity:0.935" fill="#707091" d="M 125.5,345.5 C 126.404,346.209 126.737,347.209 126.5,348.5C 126.5,350.5 126.5,352.5 126.5,354.5C 126.246,356.401 126.58,357.067 127.5,356.5C 128.833,356.5 129.5,357.167 129.5,358.5C 128.539,360.265 128.205,362.265 128.5,364.5C 128.5,364.833 128.5,365.167 128.5,365.5C 128.5,366.833 128.5,368.167 128.5,369.5C 128.167,369.5 127.833,369.5 127.5,369.5C 127.795,367.265 127.461,365.265 126.5,363.5C 126.784,361.585 126.451,359.919 125.5,358.5C 125.5,357.833 125.5,357.167 125.5,356.5C 125.5,352.833 125.5,349.167 125.5,345.5 Z"/></g>
<g><path style="opacity:0.837" fill="#7d7d9e" d="M 214.5,354.5 C 215.161,355.718 215.828,357.051 216.5,358.5C 217.182,357.757 217.849,357.091 218.5,356.5C 218.804,357.15 219.137,357.817 219.5,358.5C 218.398,359.176 217.398,359.842 216.5,360.5C 215.849,361.091 215.182,361.757 214.5,362.5C 213.537,362.03 213.537,361.363 214.5,360.5C 214.5,358.5 214.5,356.5 214.5,354.5 Z"/></g>
<g><path style="opacity:0.839" fill="#9794ad" d="M 218.5,355.5 C 220.167,355.5 221.833,355.5 223.5,355.5C 222.993,356.859 221.993,357.859 220.5,358.5C 220.624,359.107 220.957,359.44 221.5,359.5C 221.842,360.338 222.508,360.672 223.5,360.5C 222.833,361.167 222.167,361.833 221.5,362.5C 220.18,361.058 218.514,360.392 216.5,360.5C 217.398,359.842 218.398,359.176 219.5,358.5C 219.137,357.817 218.804,357.15 218.5,356.5C 218.5,356.167 218.5,355.833 218.5,355.5 Z"/></g>
<g><path style="opacity:0.004" fill="#fefffe" d="M 47.5,357.5 C 48.8333,358.167 48.8333,358.167 47.5,357.5 Z"/></g>
<g><path style="opacity:0.855" fill="#4f5075" d="M 130.5,354.5 C 130.5,355.833 130.5,357.167 130.5,358.5C 130.737,359.791 130.404,360.791 129.5,361.5C 129.5,360.5 129.5,359.5 129.5,358.5C 129.5,357.167 128.833,356.5 127.5,356.5C 128.551,355.778 129.218,354.778 129.5,353.5C 130.206,352.443 130.539,352.776 130.5,354.5 Z"/></g>
<g><path style="opacity:0.706" fill="#85859b" d="M 195.5,353.5 C 196.167,353.5 196.5,353.833 196.5,354.5C 196.5,355.5 196.5,356.5 196.5,357.5C 196.167,358.833 195.833,360.167 195.5,361.5C 194.662,361.158 194.328,360.492 194.5,359.5C 194.325,357.379 194.659,355.379 195.5,353.5 Z"/></g>
<g><path style="opacity:0.251" fill="#a7a4bc" d="M 200.5,353.5 C 200.5,356.167 200.5,358.833 200.5,361.5C 199.596,362.209 199.263,363.209 199.5,364.5C 198.549,363.081 198.216,361.415 198.5,359.5C 199.167,357.5 199.833,355.5 200.5,353.5 Z"/></g>
<g><path style="opacity:0.624" fill="#9292b5" d="M 209.5,353.5 C 209.5,356.5 209.5,359.5 209.5,362.5C 210.11,363.391 210.443,364.391 210.5,365.5C 210.5,366.167 210.167,366.5 209.5,366.5C 209.672,365.508 209.338,364.842 208.5,364.5C 208.185,360.629 208.518,356.962 209.5,353.5 Z"/></g>
<g><path style="opacity:0.431" fill="#9b99a5" d="M 297.5,355.5 C 297.5,356.5 297.5,357.5 297.5,358.5C 296.5,358.5 295.5,358.5 294.5,358.5C 294.167,358.5 293.833,358.5 293.5,358.5C 293.5,357.833 293.167,357.5 292.5,357.5C 293.78,356.069 295.447,355.402 297.5,355.5 Z"/></g>
<g><path style="opacity:0.724" fill="#998aab" d="M 297.5,355.5 C 299.543,356.579 300.876,358.246 301.5,360.5C 300.732,361.263 300.232,362.263 300,363.5C 299.722,362.584 299.222,361.918 298.5,361.5C 298.443,360.391 298.11,359.391 297.5,358.5C 297.5,357.5 297.5,356.5 297.5,355.5 Z"/></g>
<g><path style="opacity:0.702" fill="#6c6c82" d="M 125.5,356.5 C 125.5,357.167 125.5,357.833 125.5,358.5C 125.167,359.167 124.833,359.833 124.5,360.5C 123.075,362.031 122.409,361.698 122.5,359.5C 123.167,358.167 124.167,357.167 125.5,356.5 Z"/></g>
<g><path style="opacity:0.129" fill="#b5b1c0" d="M 291.5,357.5 C 291.5,358.5 291.5,359.5 291.5,360.5C 291.167,360.5 290.833,360.5 290.5,360.5C 290.44,359.957 290.107,359.624 289.5,359.5C 288.482,360.193 287.482,360.859 286.5,361.5C 286.5,360.5 286.5,359.5 286.5,358.5C 288.292,358.634 289.958,358.301 291.5,357.5 Z"/></g>
<g><path style="opacity:0.98" fill="#807a9c" d="M 291.5,357.5 C 291.833,357.5 292.167,357.5 292.5,357.5C 293.167,357.5 293.5,357.833 293.5,358.5C 293.737,359.791 293.404,360.791 292.5,361.5C 292.5,360.833 292.167,360.5 291.5,360.5C 291.5,359.5 291.5,358.5 291.5,357.5 Z"/></g>
<g><path style="opacity:0.388" fill="#b1b0c2" d="M 223.5,355.5 C 225.223,356.605 226.223,358.272 226.5,360.5C 225.5,360.5 224.5,360.5 223.5,360.5C 222.508,360.672 221.842,360.338 221.5,359.5C 220.957,359.44 220.624,359.107 220.5,358.5C 221.993,357.859 222.993,356.859 223.5,355.5 Z"/></g>
<g><path style="opacity:0.657" fill="#aaa7b2" d="M 265.5,359.5 C 266.492,361.456 267.492,363.456 268.5,365.5C 267.075,363.969 266.409,364.302 266.5,366.5C 265.662,366.158 265.328,365.492 265.5,364.5C 265.5,363.833 265.167,363.5 264.5,363.5C 264.5,362.833 264.5,362.167 264.5,361.5C 264.328,360.508 264.662,359.842 265.5,359.5 Z"/></g>
<g><path style="opacity:0.482" fill="#9094ac" d="M 176.5,356.5 C 177.451,357.919 177.784,359.585 177.5,361.5C 176.566,362.568 176.232,363.901 176.5,365.5C 175.532,363.393 175.198,361.059 175.5,358.5C 176.338,358.158 176.672,357.492 176.5,356.5 Z"/></g>
<g><path style="opacity:0.486" fill="#7e7f9f" d="M 181.5,355.5 C 182.082,357.669 182.082,360.002 181.5,362.5C 180.523,365.287 180.19,368.287 180.5,371.5C 180.167,371.5 179.833,371.5 179.5,371.5C 179.5,370.167 179.5,368.833 179.5,367.5C 179.5,364.833 179.5,362.167 179.5,359.5C 180.167,358.167 180.833,356.833 181.5,355.5 Z"/></g>
<g><path style="opacity:0.529" fill="#9e9cb1" d="M 185.5,349.5 C 186.504,356.604 187.171,363.604 187.5,370.5C 186.833,369.167 186.167,367.833 185.5,366.5C 184.532,364.393 184.198,362.059 184.5,359.5C 185.479,356.375 185.813,353.042 185.5,349.5 Z"/></g>
<g><path style="opacity:0.404" fill="#9b99b0" d="M 233.5,361.5 C 232.883,361.389 232.383,361.056 232,360.5C 231.506,362.134 231.34,363.801 231.5,365.5C 230.167,365.5 228.833,365.5 227.5,365.5C 227.5,365.167 227.5,364.833 227.5,364.5C 228.338,364.158 228.672,363.492 228.5,362.5C 229.117,362.611 229.617,362.944 230,363.5C 230.49,362.207 230.657,360.873 230.5,359.5C 232.179,359.285 233.179,359.952 233.5,361.5 Z"/></g>
<g><path style="opacity:0.729" fill="#a9a6bb" d="M 273.5,345.5 C 274.239,354.329 274.239,363.329 273.5,372.5C 272.833,369.167 272.167,365.833 271.5,362.5C 271.5,361.833 271.5,361.167 271.5,360.5C 271.5,359.167 271.5,357.833 271.5,356.5C 271.5,355.833 271.833,355.5 272.5,355.5C 273.549,353.614 273.882,350.28 273.5,345.5 Z"/></g>
<g><path style="opacity:0.737" fill="#9695a1" d="M 284.5,357.5 C 283.833,358.5 283.167,359.5 282.5,360.5C 282.5,361.167 282.167,361.5 281.5,361.5C 280.43,359.027 281.43,357.693 284.5,357.5 Z"/></g>
<g><path style="opacity:0.682" fill="#a59eb9" d="M 284.5,357.5 C 285.492,357.328 286.158,357.662 286.5,358.5C 286.5,359.5 286.5,360.5 286.5,361.5C 286.167,362.167 285.833,362.833 285.5,363.5C 284.833,363.5 284.5,363.833 284.5,364.5C 283.833,363.167 283.167,361.833 282.5,360.5C 283.167,359.5 283.833,358.5 284.5,357.5 Z"/></g>
<g><path style="opacity:0.059" fill="#9494b4" d="M 125.5,358.5 C 126.451,359.919 126.784,361.585 126.5,363.5C 126.5,364.167 126.167,364.5 125.5,364.5C 125.5,363.5 125.5,362.5 125.5,361.5C 125.5,360.833 125.167,360.5 124.5,360.5C 124.833,359.833 125.167,359.167 125.5,358.5 Z"/></g>
<g><path style="opacity:0.51" fill="#9e9ab6" d="M 194.5,359.5 C 194.328,360.492 194.662,361.158 195.5,361.5C 195.768,363.099 195.434,364.432 194.5,365.5C 194.737,364.209 194.404,363.209 193.5,362.5C 193.263,361.209 193.596,360.209 194.5,359.5 Z"/></g>
<g><path style="opacity:0.639" fill="#9896af" d="M 213.5,360.5 C 213.833,360.5 214.167,360.5 214.5,360.5C 213.537,361.363 213.537,362.03 214.5,362.5C 215.182,361.757 215.849,361.091 216.5,360.5C 216.5,362.833 216.5,365.167 216.5,367.5C 215.833,367.5 215.167,367.5 214.5,367.5C 214.657,366.127 214.49,364.793 214,363.5C 212.887,364.305 211.721,364.972 210.5,365.5C 210.443,364.391 210.11,363.391 209.5,362.5C 211.062,362.267 212.395,361.6 213.5,360.5 Z"/></g>
<g><path style="opacity:0.596" fill="#9592a4" d="M 245.5,362.5 C 245.166,365.188 245.832,367.521 247.5,369.5C 244.914,368.513 243.581,366.513 243.5,363.5C 242.791,362.596 241.791,362.263 240.5,362.5C 240.062,361.494 239.396,361.494 238.5,362.5C 240.756,358.61 243.089,358.61 245.5,362.5 Z"/></g>
<g><path style="opacity:0.004" fill="#fefffe" d="M 46.5,362.5 C 47.8333,363.167 47.8333,363.167 46.5,362.5 Z"/></g>
<g><path style="opacity:0.702" fill="#878294" d="M 122.5,359.5 C 122.409,361.698 123.075,362.031 124.5,360.5C 125.167,360.5 125.5,360.833 125.5,361.5C 123.273,362.401 122.273,364.067 122.5,366.5C 121.833,365.5 121.167,364.5 120.5,363.5C 120.989,362.005 121.655,360.671 122.5,359.5 Z"/></g>
<g><path style="opacity:0.525" fill="#747087" d="M 130.5,358.5 C 131.473,360.948 131.806,363.615 131.5,366.5C 131.737,367.791 131.404,368.791 130.5,369.5C 130.5,369.167 130.5,368.833 130.5,368.5C 130.5,368.167 130.5,367.833 130.5,367.5C 130.483,365.435 130.15,363.435 129.5,361.5C 130.404,360.791 130.737,359.791 130.5,358.5 Z"/></g>
<g><path style="opacity:1" fill="#8480a5" d="M 223.5,360.5 C 224.5,360.5 225.5,360.5 226.5,360.5C 227.833,360.5 228.5,361.167 228.5,362.5C 228.672,363.492 228.338,364.158 227.5,364.5C 226.947,362.448 225.947,362.115 224.5,363.5C 224.672,364.492 224.338,365.158 223.5,365.5C 222.833,364.5 222.167,363.5 221.5,362.5C 222.167,361.833 222.833,361.167 223.5,360.5 Z"/></g>
<g><path style="opacity:0.976" fill="#665f8f" d="M 233.5,361.5 C 232.193,362.802 232.193,364.135 233.5,365.5C 233.03,366.463 232.363,366.463 231.5,365.5C 231.34,363.801 231.506,362.134 232,360.5C 232.383,361.056 232.883,361.389 233.5,361.5 Z"/></g>
<g><path style="opacity:1" fill="#a49fbd" d="M 251.5,361.5 C 251.263,362.791 251.596,363.791 252.5,364.5C 252.5,366.167 252.5,367.833 252.5,369.5C 251.833,369.167 251.167,368.833 250.5,368.5C 251.326,366.452 250.659,364.785 248.5,363.5C 248.5,362.5 248.5,361.5 248.5,360.5C 249.791,360.263 250.791,360.596 251.5,361.5 Z"/></g>
<g><path style="opacity:0.084" fill="#bcbace" d="M 251.5,361.5 C 252.833,361.5 254.167,361.5 255.5,361.5C 255.737,362.791 255.404,363.791 254.5,364.5C 254.214,362.067 253.548,362.067 252.5,364.5C 251.596,363.791 251.263,362.791 251.5,361.5 Z"/></g>
<g><path style="opacity:0.745" fill="#8d86a6" d="M 290.5,360.5 C 290.833,360.5 291.167,360.5 291.5,360.5C 292.167,360.5 292.5,360.833 292.5,361.5C 291.662,361.842 291.328,362.508 291.5,363.5C 290.033,366.258 289.367,365.925 289.5,362.5C 289.833,361.833 290.167,361.167 290.5,360.5 Z"/></g>
<g><path style="opacity:0.657" fill="#b0aebe" d="M 293.5,358.5 C 293.833,358.5 294.167,358.5 294.5,358.5C 295.167,360.5 295.833,362.5 296.5,364.5C 295.596,365.209 295.263,366.209 295.5,367.5C 294.833,367.5 294.167,367.5 293.5,367.5C 295.002,365.171 294.336,363.837 291.5,363.5C 291.328,362.508 291.662,361.842 292.5,361.5C 293.404,360.791 293.737,359.791 293.5,358.5 Z"/></g>
<g><path style="opacity:1" fill="#9b95c1" d="M 224.5,363.5 C 225.947,362.115 226.947,362.448 227.5,364.5C 227.5,364.833 227.5,365.167 227.5,365.5C 226.833,365.5 226.167,365.5 225.5,365.5C 225.672,364.508 225.338,363.842 224.5,363.5 Z"/></g>
<g><path style="opacity:0.035" fill="#bfbfd5" d="M 240.5,362.5 C 241.791,362.263 242.791,362.596 243.5,363.5C 242.022,364.448 241.022,365.781 240.5,367.5C 240.5,365.833 240.5,364.167 240.5,362.5 Z"/></g>
<g><path style="opacity:0.357" fill="#b5b4c7" d="M 281.5,362.5 C 281.989,363.995 282.655,365.329 283.5,366.5C 283.5,366.833 283.5,367.167 283.5,367.5C 282.662,367.842 282.328,368.508 282.5,369.5C 281.833,368.833 281.167,368.167 280.5,367.5C 280.737,366.209 280.404,365.209 279.5,364.5C 279.833,363.5 280.5,362.833 281.5,362.5 Z"/></g>
<g><path style="opacity:0.973" fill="#8885a1" d="M 282.5,360.5 C 283.167,361.833 283.833,363.167 284.5,364.5C 284.672,365.492 284.338,366.158 283.5,366.5C 282.655,365.329 281.989,363.995 281.5,362.5C 281.5,362.167 281.5,361.833 281.5,361.5C 282.167,361.5 282.5,361.167 282.5,360.5 Z"/></g>
<g><path style="opacity:0.502" fill="#a8a5b6" d="M 301.5,360.5 C 301.785,362.288 301.452,363.955 300.5,365.5C 298.889,364.68 298.222,363.346 298.5,361.5C 299.222,361.918 299.722,362.584 300,363.5C 300.232,362.263 300.732,361.263 301.5,360.5 Z"/></g>
<g><path style="opacity:0.733" fill="#7b7789" d="M 120.5,363.5 C 121.167,364.5 121.833,365.5 122.5,366.5C 123.167,366.833 123.833,367.167 124.5,367.5C 124.833,368.167 125.167,368.833 125.5,369.5C 125.833,370.167 126.167,370.833 126.5,371.5C 122.349,370.068 120.349,367.401 120.5,363.5 Z"/></g>
<g><path style="opacity:0.271" fill="#a09eba" d="M 129.5,358.5 C 129.5,359.5 129.5,360.5 129.5,361.5C 130.15,363.435 130.483,365.435 130.5,367.5C 129.662,367.158 129.328,366.492 129.5,365.5C 129.5,364.833 129.167,364.5 128.5,364.5C 128.205,362.265 128.539,360.265 129.5,358.5 Z"/></g>
<g><path style="opacity:0.8" fill="#9c98b5" d="M 207.5,352.5 C 207.183,356.702 207.517,360.702 208.5,364.5C 207.833,365.833 206.833,366.833 205.5,367.5C 206.006,362.346 206.673,357.346 207.5,352.5 Z"/></g>
<g><path style="opacity:0.827" fill="#8782a9" d="M 248.5,363.5 C 250.659,364.785 251.326,366.452 250.5,368.5C 250.167,368.5 249.833,368.5 249.5,368.5C 248.699,366.958 248.366,365.292 248.5,363.5 Z"/></g>
<g><path style="opacity:0.722" fill="#aca7bd" d="M 264.5,363.5 C 265.167,363.5 265.5,363.833 265.5,364.5C 264.833,365.833 264.167,367.167 263.5,368.5C 263.715,366.821 263.048,365.821 261.5,365.5C 262.29,364.599 263.29,363.932 264.5,363.5 Z"/></g>
<g><path style="opacity:1" fill="#78749c" d="M 224.5,363.5 C 225.338,363.842 225.672,364.508 225.5,365.5C 225.737,366.791 225.404,367.791 224.5,368.5C 223.89,367.609 223.557,366.609 223.5,365.5C 224.338,365.158 224.672,364.492 224.5,363.5 Z"/></g>
<g><path style="opacity:0.671" fill="#9e9ca9" d="M 268.5,365.5 C 268.833,366.167 269.167,366.833 269.5,367.5C 269.672,368.492 269.338,369.158 268.5,369.5C 267.833,368.5 267.167,367.5 266.5,366.5C 266.409,364.302 267.075,363.969 268.5,365.5 Z"/></g>
<g><path style="opacity:0.761" fill="#a39cad" d="M 289.5,362.5 C 289.367,365.925 290.033,366.258 291.5,363.5C 291.5,364.167 291.5,364.833 291.5,365.5C 291.672,366.492 291.338,367.158 290.5,367.5C 288.403,366.121 288.07,364.455 289.5,362.5 Z"/></g>
<g><path style="opacity:0.686" fill="#9f9ca9" d="M 296.5,364.5 C 297.853,366.128 297.519,367.462 295.5,368.5C 295.5,368.167 295.5,367.833 295.5,367.5C 295.263,366.209 295.596,365.209 296.5,364.5 Z"/></g>
<g><path style="opacity:0.808" fill="#8e8ab0" d="M 233.5,361.5 C 234.404,362.209 234.737,363.209 234.5,364.5C 234.5,365.5 234.5,366.5 234.5,367.5C 234.167,367.5 233.833,367.5 233.5,367.5C 232.167,367.5 231.5,366.833 231.5,365.5C 232.363,366.463 233.03,366.463 233.5,365.5C 232.193,364.135 232.193,362.802 233.5,361.5 Z"/></g>
<g><path style="opacity:0.725" fill="#9995b2" d="M 238.5,362.5 C 238.5,366.167 238.5,369.833 238.5,373.5C 237.566,372.432 237.232,371.099 237.5,369.5C 237.649,368.448 237.483,367.448 237,366.5C 236.329,367.252 235.496,367.586 234.5,367.5C 234.5,366.5 234.5,365.5 234.5,364.5C 236.199,364.473 237.533,363.806 238.5,362.5 Z"/></g>
<g><path style="opacity:0.82" fill="#757094" d="M 240.5,362.5 C 240.5,364.167 240.5,365.833 240.5,367.5C 239.833,369.5 239.167,371.5 238.5,373.5C 238.5,369.833 238.5,366.167 238.5,362.5C 239.396,361.494 240.062,361.494 240.5,362.5 Z"/></g>
<g><path style="opacity:0.706" fill="#a6a4b6" d="M 285.5,363.5 C 285.604,365.703 286.27,367.703 287.5,369.5C 286.662,369.842 286.328,370.508 286.5,371.5C 285.512,370.205 284.512,368.872 283.5,367.5C 283.5,367.167 283.5,366.833 283.5,366.5C 284.338,366.158 284.672,365.492 284.5,364.5C 284.5,363.833 284.833,363.5 285.5,363.5 Z"/></g>
<g><path style="opacity:0.082" fill="#9894aa" d="M 126.5,363.5 C 127.461,365.265 127.795,367.265 127.5,369.5C 126.833,369.5 126.167,369.5 125.5,369.5C 125.167,368.833 124.833,368.167 124.5,367.5C 125.404,366.791 125.737,365.791 125.5,364.5C 126.167,364.5 126.5,364.167 126.5,363.5 Z"/></g>
<g><path style="opacity:0.537" fill="#8d8c9c" d="M 168.5,366.5 C 169.167,367.167 169.833,367.833 170.5,368.5C 169.325,368.281 168.325,368.614 167.5,369.5C 167.058,370.739 166.391,371.739 165.5,372.5C 165.672,371.508 165.338,370.842 164.5,370.5C 164.894,368.29 166.227,366.957 168.5,366.5 Z"/></g>
<g><path style="opacity:0.506" fill="#8b8990" d="M 168.5,366.5 C 170.553,366.402 172.22,367.069 173.5,368.5C 172.833,368.833 172.167,369.167 171.5,369.5C 171.5,368.833 171.167,368.5 170.5,368.5C 169.833,367.833 169.167,367.167 168.5,366.5 Z"/></g>
<g><path style="opacity:0.522" fill="#9492aa" d="M 200.5,361.5 C 200.674,363.861 201.007,366.194 201.5,368.5C 200.596,369.209 200.263,370.209 200.5,371.5C 199.041,371.567 197.708,371.234 196.5,370.5C 196.775,368.158 197.608,368.158 199,370.5C 199.495,368.527 199.662,366.527 199.5,364.5C 199.263,363.209 199.596,362.209 200.5,361.5 Z"/></g>
<g><path style="opacity:0.624" fill="#a5a4bf" d="M 223.5,365.5 C 223.557,366.609 223.89,367.609 224.5,368.5C 223.609,369.11 222.609,369.443 221.5,369.5C 219.833,368.833 218.167,368.167 216.5,367.5C 219.211,367.815 221.544,367.148 223.5,365.5 Z"/></g>
<g><path style="opacity:0.133" fill="#c1becf" d="M 237.5,369.5 C 235.053,369.615 233.053,370.615 231.5,372.5C 231.672,371.508 231.338,370.842 230.5,370.5C 231.9,369.9 232.9,368.9 233.5,367.5C 233.833,367.5 234.167,367.5 234.5,367.5C 235.496,367.586 236.329,367.252 237,366.5C 237.483,367.448 237.649,368.448 237.5,369.5 Z"/></g>
<g><path style="opacity:0.365" fill="#bdb9c9" d="M 245.5,362.5 C 246.29,363.609 246.79,364.942 247,366.5C 247.232,365.263 247.732,364.263 248.5,363.5C 248.366,365.292 248.699,366.958 249.5,368.5C 248.833,368.833 248.167,369.167 247.5,369.5C 245.832,367.521 245.166,365.188 245.5,362.5 Z"/></g>
<g><path style="opacity:0.412" fill="#a9a3b5" d="M 261.5,365.5 C 261.85,367.626 261.85,369.959 261.5,372.5C 260.978,370.781 259.978,369.448 258.5,368.5C 257.833,368.5 257.167,368.5 256.5,368.5C 257.899,367.11 259.566,366.11 261.5,365.5 Z"/></g>
<g><path style="opacity:0.865" fill="#888499" d="M 261.5,365.5 C 263.048,365.821 263.715,366.821 263.5,368.5C 262.833,369.833 262.167,371.167 261.5,372.5C 261.85,369.959 261.85,367.626 261.5,365.5 Z"/></g>
<g><path style="opacity:0.633" fill="#a49ea9" d="M 291.5,365.5 C 292.167,366.167 292.833,366.833 293.5,367.5C 294.167,367.5 294.833,367.5 295.5,367.5C 295.5,367.833 295.5,368.167 295.5,368.5C 293.523,369.872 291.856,369.538 290.5,367.5C 291.338,367.158 291.672,366.492 291.5,365.5 Z"/></g>
<g><path style="opacity:0.129" fill="#a6a5bd" d="M 128.5,365.5 C 128.833,365.5 129.167,365.5 129.5,365.5C 129.328,366.492 129.662,367.158 130.5,367.5C 130.5,367.833 130.5,368.167 130.5,368.5C 129.167,368.833 129.167,369.167 130.5,369.5C 130.5,369.833 130.5,370.167 130.5,370.5C 129.508,370.672 128.842,370.338 128.5,369.5C 128.5,368.167 128.5,366.833 128.5,365.5 Z"/></g>
<g><path style="opacity:0.361" fill="#acadc7" d="M 177.5,365.5 C 178.167,366.167 178.833,366.833 179.5,367.5C 179.5,368.833 179.5,370.167 179.5,371.5C 179.5,372.167 179.167,372.5 178.5,372.5C 177.781,370.236 177.448,367.903 177.5,365.5 Z"/></g>
<g><path style="opacity:0.593" fill="#8d88af" d="M 185.5,366.5 C 186.167,367.833 186.833,369.167 187.5,370.5C 187.5,370.833 187.5,371.167 187.5,371.5C 186.115,372.947 186.448,373.947 188.5,374.5C 188.5,374.833 188.5,375.167 188.5,375.5C 187.833,375.5 187.167,375.5 186.5,375.5C 186.167,375.5 185.833,375.5 185.5,375.5C 185.5,374.5 185.5,373.5 185.5,372.5C 185.5,370.5 185.5,368.5 185.5,366.5 Z"/></g>
<g><path style="opacity:1" fill="#71709c" d="M 208.5,364.5 C 209.338,364.842 209.672,365.508 209.5,366.5C 208.333,368.041 207,369.375 205.5,370.5C 204.662,370.158 204.328,369.492 204.5,368.5C 204.5,367.833 204.833,367.5 205.5,367.5C 206.833,366.833 207.833,365.833 208.5,364.5 Z"/></g>
<g><path style="opacity:0.373" fill="#9090aa" d="M 214.5,367.5 C 214.5,368.167 214.5,368.833 214.5,369.5C 212.585,369.216 210.919,369.549 209.5,370.5C 209.338,372.527 209.505,374.527 210,376.5C 210.671,377.252 211.504,377.586 212.5,377.5C 211.081,378.451 209.415,378.784 207.5,378.5C 207.5,378.167 207.5,377.833 207.5,377.5C 208.451,376.081 208.784,374.415 208.5,372.5C 208.157,370.517 208.824,369.183 210.5,368.5C 211.833,368.167 213.167,367.833 214.5,367.5 Z"/></g>
<g><path style="opacity:0.792" fill="#707091" d="M 214.5,367.5 C 215.167,367.5 215.833,367.5 216.5,367.5C 218.167,368.167 219.833,368.833 221.5,369.5C 219.167,369.5 216.833,369.5 214.5,369.5C 214.5,368.833 214.5,368.167 214.5,367.5 Z"/></g>
<g><path style="opacity:0.651" fill="#aaa7c1" d="M 225.5,365.5 C 226.167,365.5 226.833,365.5 227.5,365.5C 226.529,366.962 226.862,368.295 228.5,369.5C 227.508,369.328 226.842,369.662 226.5,370.5C 225.5,370.167 224.833,369.5 224.5,368.5C 225.404,367.791 225.737,366.791 225.5,365.5 Z"/></g>
<g><path style="opacity:0.753" fill="#837f98" d="M 254.5,364.5 C 254.5,364.833 254.5,365.167 254.5,365.5C 253.549,366.919 253.216,368.585 253.5,370.5C 253.167,370.5 252.833,370.5 252.5,370.5C 252.5,370.167 252.5,369.833 252.5,369.5C 252.5,367.833 252.5,366.167 252.5,364.5C 253.548,362.067 254.214,362.067 254.5,364.5 Z"/></g>
<g><path style="opacity:0.62" fill="#a6a1b6" d="M 279.5,364.5 C 280.404,365.209 280.737,366.209 280.5,367.5C 280.433,368.959 280.766,370.292 281.5,371.5C 280.833,371.5 280.167,371.5 279.5,371.5C 279.5,370.833 279.5,370.167 279.5,369.5C 279.5,367.833 279.5,366.167 279.5,364.5 Z"/></g>
<g><path style="opacity:0.392" fill="#8a88a4" d="M 131.5,366.5 C 132.309,368.028 132.976,369.694 133.5,371.5C 133.167,371.5 132.833,371.5 132.5,371.5C 131.833,371.167 131.167,370.833 130.5,370.5C 130.5,370.167 130.5,369.833 130.5,369.5C 131.404,368.791 131.737,367.791 131.5,366.5 Z"/></g>
<g><path style="opacity:0.425" fill="#7c7d95" d="M 177.5,361.5 C 177.5,362.833 177.5,364.167 177.5,365.5C 177.448,367.903 177.781,370.236 178.5,372.5C 178.5,372.833 178.5,373.167 178.5,373.5C 178.167,373.5 177.833,373.5 177.5,373.5C 177.672,372.508 177.338,371.842 176.5,371.5C 176.5,369.5 176.5,367.5 176.5,365.5C 176.232,363.901 176.566,362.568 177.5,361.5 Z"/></g>
<g><path style="opacity:0.927" fill="#7e7fac" d="M 201.5,368.5 C 202.5,368.5 203.5,368.5 204.5,368.5C 204.328,369.492 204.662,370.158 205.5,370.5C 205.5,370.833 205.5,371.167 205.5,371.5C 204.5,371.5 203.5,371.5 202.5,371.5C 202.443,370.391 202.11,369.391 201.5,368.5 Z"/></g>
<g><path style="opacity:0.337" fill="#b9b7ce" d="M 271.5,360.5 C 271.5,361.167 271.5,361.833 271.5,362.5C 271.665,365.518 271.498,368.518 271,371.5C 270.667,371.167 270.333,370.833 270,370.5C 269.517,371.448 269.351,372.448 269.5,373.5C 269.167,373.5 268.833,373.5 268.5,373.5C 268.5,372.167 268.5,370.833 268.5,369.5C 269.338,369.158 269.672,368.492 269.5,367.5C 270.167,365.167 270.833,362.833 271.5,360.5 Z"/></g>
<g><path style="opacity:1" fill="#484872" d="M 125.5,369.5 C 126.167,369.5 126.833,369.5 127.5,369.5C 127.833,369.5 128.167,369.5 128.5,369.5C 128.842,370.338 129.508,370.672 130.5,370.5C 131.167,370.833 131.833,371.167 132.5,371.5C 132.5,371.833 132.5,372.167 132.5,372.5C 131.833,372.5 131.167,372.5 130.5,372.5C 129.508,372.328 128.842,372.662 128.5,373.5C 127.833,372.833 127.167,372.167 126.5,371.5C 126.167,370.833 125.833,370.167 125.5,369.5 Z"/></g>
<g><path style="opacity:0.588" fill="#8a83a3" d="M 173.5,368.5 C 174.338,368.842 174.672,369.508 174.5,370.5C 174.5,371.167 174.167,371.5 173.5,371.5C 172.5,371.167 171.833,370.5 171.5,369.5C 172.167,369.167 172.833,368.833 173.5,368.5 Z"/></g>
<g><path style="opacity:0.247" fill="#a4a5be" d="M 181.5,362.5 C 181.264,365.609 181.597,368.609 182.5,371.5C 181.604,372.506 180.938,372.506 180.5,371.5C 180.19,368.287 180.523,365.287 181.5,362.5 Z"/></g>
<g><path style="opacity:0.867" fill="#8787a0" d="M 193.5,362.5 C 194.404,363.209 194.737,364.209 194.5,365.5C 194.5,366.5 194.5,367.5 194.5,368.5C 193.596,369.209 193.263,370.209 193.5,371.5C 192.833,371.5 192.167,371.5 191.5,371.5C 192.062,368.454 192.729,365.454 193.5,362.5 Z"/></g>
<g><path style="opacity:1" fill="#67668f" d="M 201.5,368.5 C 202.11,369.391 202.443,370.391 202.5,371.5C 202.672,372.492 202.338,373.158 201.5,373.5C 199.469,373.028 197.802,372.028 196.5,370.5C 197.708,371.234 199.041,371.567 200.5,371.5C 200.263,370.209 200.596,369.209 201.5,368.5 Z"/></g>
<g><path style="opacity:0.169" fill="#a8a5cf" d="M 209.5,366.5 C 209.833,367.167 210.167,367.833 210.5,368.5C 208.824,369.183 208.157,370.517 208.5,372.5C 207.609,371.89 206.609,371.557 205.5,371.5C 205.5,371.167 205.5,370.833 205.5,370.5C 207,369.375 208.333,368.041 209.5,366.5 Z"/></g>
<g><path style="opacity:0.612" fill="#9b98ab" d="M 240.5,367.5 C 240.808,369.924 240.474,372.257 239.5,374.5C 238.893,374.376 238.56,374.043 238.5,373.5C 239.167,371.5 239.833,369.5 240.5,367.5 Z"/></g>
<g><path style="opacity:0.553" fill="#aba8b7" d="M 254.5,365.5 C 254.343,366.873 254.51,368.207 255,369.5C 255.383,368.944 255.883,368.611 256.5,368.5C 257.167,368.5 257.833,368.5 258.5,368.5C 257.136,370.191 255.803,371.858 254.5,373.5C 254.443,372.391 254.11,371.391 253.5,370.5C 253.216,368.585 253.549,366.919 254.5,365.5 Z"/></g>
<g><path style="opacity:0.004" fill="#fefffe" d="M 89.5,371.5 C 90.8333,372.167 90.8333,372.167 89.5,371.5 Z"/></g>
<g><path style="opacity:0.765" fill="#726e89" d="M 164.5,370.5 C 165.338,370.842 165.672,371.508 165.5,372.5C 164.549,373.919 164.216,375.585 164.5,377.5C 164.167,377.5 163.833,377.5 163.5,377.5C 163.5,375.833 163.5,374.167 163.5,372.5C 163.328,371.508 163.662,370.842 164.5,370.5 Z"/></g>
<g><path style="opacity:0.878" fill="#8a869d" d="M 252.5,370.5 C 252.833,370.5 253.167,370.5 253.5,370.5C 254.11,371.391 254.443,372.391 254.5,373.5C 254.5,374.5 254.5,375.5 254.5,376.5C 254.737,377.791 254.404,378.791 253.5,379.5C 253.5,378.833 253.5,378.167 253.5,377.5C 253.443,376.391 253.11,375.391 252.5,374.5C 252.5,373.167 252.5,371.833 252.5,370.5 Z"/></g>
<g><path style="opacity:0.643" fill="#9895ab" d="M 280.5,367.5 C 281.167,368.167 281.833,368.833 282.5,369.5C 283.167,370.5 283.833,371.5 284.5,372.5C 283.833,372.5 283.167,372.5 282.5,372.5C 281.833,372.5 281.5,372.167 281.5,371.5C 280.766,370.292 280.433,368.959 280.5,367.5 Z"/></g>
<g><path style="opacity:0.702" fill="#878594" d="M 132.5,371.5 C 132.833,371.5 133.167,371.5 133.5,371.5C 135.099,371.232 136.432,371.566 137.5,372.5C 136.761,372.369 136.094,372.536 135.5,373C 136.737,373.232 137.737,373.732 138.5,374.5C 136.297,374.065 134.297,374.065 132.5,374.5C 132.5,373.833 132.5,373.167 132.5,372.5C 132.5,372.167 132.5,371.833 132.5,371.5 Z"/></g>
<g><path style="opacity:0.408" fill="#9593b0" d="M 174.5,370.5 C 175.222,370.918 175.722,371.584 176,372.5C 176.399,372.272 176.565,371.938 176.5,371.5C 177.338,371.842 177.672,372.508 177.5,373.5C 176.833,373.833 176.167,374.167 175.5,374.5C 174.833,373.5 174.167,372.5 173.5,371.5C 174.167,371.5 174.5,371.167 174.5,370.5 Z"/></g>
<g><path style="opacity:0.839" fill="#716f94" d="M 187.5,371.5 C 188.705,372.686 190.039,372.686 191.5,371.5C 192.167,371.5 192.833,371.5 193.5,371.5C 193.557,372.609 193.89,373.609 194.5,374.5C 192.5,373.167 190.5,373.167 188.5,374.5C 186.448,373.947 186.115,372.947 187.5,371.5 Z"/></g>
<g><path style="opacity:0.576" fill="#9e9db0" d="M 209.5,370.5 C 210.919,369.549 212.585,369.216 214.5,369.5C 216.833,369.5 219.167,369.5 221.5,369.5C 220.081,370.451 218.415,370.784 216.5,370.5C 216.371,372.216 216.038,373.883 215.5,375.5C 214.833,375.5 214.167,375.5 213.5,375.5C 215.263,371.584 213.929,369.917 209.5,370.5 Z"/></g>
<g><path style="opacity:0.729" fill="#928dac" d="M 228.5,369.5 C 229.167,369.833 229.833,370.167 230.5,370.5C 231.338,370.842 231.672,371.508 231.5,372.5C 230.791,373.404 229.791,373.737 228.5,373.5C 227.5,373.5 226.5,373.5 225.5,373.5C 225.918,372.778 226.584,372.278 227.5,372C 226.944,371.617 226.611,371.117 226.5,370.5C 226.842,369.662 227.508,369.328 228.5,369.5 Z"/></g>
<g><path style="opacity:0.78" fill="#a5a2b0" d="M 263.5,368.5 C 263.365,370.554 264.032,372.221 265.5,373.5C 264.508,373.328 263.842,373.662 263.5,374.5C 262.5,374.167 261.833,373.5 261.5,372.5C 262.167,371.167 262.833,369.833 263.5,368.5 Z"/></g>
<g><path style="opacity:0.918" fill="#9794ae" d="M 271.5,362.5 C 272.167,365.833 272.833,369.167 273.5,372.5C 274.167,372.833 274.833,373.167 275.5,373.5C 275.833,373.5 276.167,373.5 276.5,373.5C 275.104,375.373 273.437,375.706 271.5,374.5C 270.508,374.672 269.842,374.338 269.5,373.5C 269.351,372.448 269.517,371.448 270,370.5C 270.333,370.833 270.667,371.167 271,371.5C 271.498,368.518 271.665,365.518 271.5,362.5 Z"/></g>
<g><path style="opacity:0.012" fill="#b3b0b5" d="M 279.5,369.5 C 279.5,370.167 279.5,370.833 279.5,371.5C 279.027,372.906 278.027,373.573 276.5,373.5C 276.167,373.5 275.833,373.5 275.5,373.5C 277.167,372.5 278.5,371.167 279.5,369.5 Z"/></g>
<g><path style="opacity:0.573" fill="#9591a3" d="M 282.5,372.5 C 283.167,372.5 283.833,372.5 284.5,372.5C 284.833,372.5 285.167,372.5 285.5,372.5C 286.167,373.167 286.833,373.833 287.5,374.5C 285.302,374.88 283.635,374.213 282.5,372.5 Z"/></g>
<g><path style="opacity:0.741" fill="#9c99a9" d="M 287.5,369.5 C 288.72,371.284 288.72,372.95 287.5,374.5C 286.833,373.833 286.167,373.167 285.5,372.5C 286.167,372.5 286.5,372.167 286.5,371.5C 286.328,370.508 286.662,369.842 287.5,369.5 Z"/></g>
<g><path style="opacity:0.569" fill="#797588" d="M 137.5,372.5 C 139.099,372.232 140.432,372.566 141.5,373.5C 140.508,373.328 139.842,373.662 139.5,374.5C 139.167,374.5 138.833,374.5 138.5,374.5C 137.737,373.732 136.737,373.232 135.5,373C 136.094,372.536 136.761,372.369 137.5,372.5 Z"/></g>
<g><path style="opacity:0.631" fill="#6c6984" d="M 141.5,373.5 C 143.415,373.216 145.081,373.549 146.5,374.5C 145.791,375.404 144.791,375.737 143.5,375.5C 141.901,375.768 140.568,375.434 139.5,374.5C 139.842,373.662 140.508,373.328 141.5,373.5 Z"/></g>
<g><path style="opacity:0.624" fill="#958eb9" d="M 182.5,371.5 C 183.391,372.11 184.391,372.443 185.5,372.5C 185.5,373.5 185.5,374.5 185.5,375.5C 184.167,375.5 182.833,375.5 181.5,375.5C 182.263,374.732 183.263,374.232 184.5,374C 183.244,373.583 182.577,372.75 182.5,371.5 Z"/></g>
<g><path style="opacity:1" fill="#9f9ec4" d="M 194.5,374.5 C 194.5,375.167 194.167,375.5 193.5,375.5C 192.833,375.5 192.167,375.5 191.5,375.5C 190.5,375.5 189.5,375.5 188.5,375.5C 188.5,375.167 188.5,374.833 188.5,374.5C 190.5,373.167 192.5,373.167 194.5,374.5 Z"/></g>
<g><path style="opacity:0.518" fill="#9a9ab6" d="M 194.5,368.5 C 194.343,369.873 194.51,371.207 195,372.5C 195.278,371.584 195.778,370.918 196.5,370.5C 197.802,372.028 199.469,373.028 201.5,373.5C 199.097,373.448 196.764,373.781 194.5,374.5C 193.89,373.609 193.557,372.609 193.5,371.5C 193.263,370.209 193.596,369.209 194.5,368.5 Z"/></g>
<g><path style="opacity:0.529" fill="#a9a8c0" d="M 202.5,371.5 C 203.5,371.5 204.5,371.5 205.5,371.5C 204.449,372.222 203.782,373.222 203.5,374.5C 202.662,374.842 202.328,375.508 202.5,376.5C 201.596,375.791 201.263,374.791 201.5,373.5C 202.338,373.158 202.672,372.492 202.5,371.5 Z"/></g>
<g><path style="opacity:1" fill="#686ca1" d="M 179.5,371.5 C 179.833,371.5 180.167,371.5 180.5,371.5C 180.938,372.506 181.604,372.506 182.5,371.5C 182.577,372.75 183.244,373.583 184.5,374C 183.263,374.232 182.263,374.732 181.5,375.5C 181.5,375.833 181.5,376.167 181.5,376.5C 181.167,376.5 180.833,376.5 180.5,376.5C 178.952,376.179 178.285,375.179 178.5,373.5C 178.5,373.167 178.5,372.833 178.5,372.5C 179.167,372.5 179.5,372.167 179.5,371.5 Z"/></g>
<g><path style="opacity:0.267" fill="#a09daa" d="M 225.5,373.5 C 226.5,373.5 227.5,373.5 228.5,373.5C 225.656,374.31 222.99,375.644 220.5,377.5C 220.5,376.833 220.167,376.5 219.5,376.5C 221.181,374.992 223.181,373.992 225.5,373.5 Z"/></g>
<g><path style="opacity:0.612" fill="#a7a3a8" d="M 265.5,373.5 C 266.5,373.5 267.5,373.5 268.5,373.5C 268.833,373.5 269.167,373.5 269.5,373.5C 269.842,374.338 270.508,374.672 271.5,374.5C 268.833,377.167 266.167,377.167 263.5,374.5C 263.842,373.662 264.508,373.328 265.5,373.5 Z"/></g>
<g><path style="opacity:0.233" fill="#9595b4" d="M 130.5,372.5 C 130.5,372.833 130.5,373.167 130.5,373.5C 129.549,374.919 129.216,376.585 129.5,378.5C 128.549,377.081 128.216,375.415 128.5,373.5C 128.842,372.662 129.508,372.328 130.5,372.5 Z"/></g>
<g><path style="opacity:0.62" fill="#7c798e" d="M 146.5,374.5 C 148.565,374.517 150.565,374.85 152.5,375.5C 152.672,376.492 152.338,377.158 151.5,377.5C 148.572,377.435 145.905,376.768 143.5,375.5C 144.791,375.737 145.791,375.404 146.5,374.5 Z"/></g>
<g><path style="opacity:0.706" fill="#8b889c" d="M 163.5,372.5 C 163.5,374.167 163.5,375.833 163.5,377.5C 163.557,378.609 163.89,379.609 164.5,380.5C 163.252,379.666 162.585,378.333 162.5,376.5C 162.511,374.955 162.844,373.622 163.5,372.5 Z"/></g>
<g><path style="opacity:0.149" fill="#9c9bb9" d="M 165.5,372.5 C 165.325,374.621 165.659,376.621 166.5,378.5C 166.167,378.5 165.833,378.5 165.5,378.5C 164.833,378.5 164.5,378.167 164.5,377.5C 164.216,375.585 164.549,373.919 165.5,372.5 Z"/></g>
<g><path style="opacity:0.718" fill="#9794a9" d="M 152.5,375.5 C 154.153,375.66 155.486,376.326 156.5,377.5C 155.761,377.369 155.094,377.536 154.5,378C 155.571,378.852 156.571,379.685 157.5,380.5C 155.03,380.346 153.03,379.346 151.5,377.5C 152.338,377.158 152.672,376.492 152.5,375.5 Z"/></g>
<g><path style="opacity:0.545" fill="#8b84a1" d="M 175.5,374.5 C 175.557,375.609 175.89,376.609 176.5,377.5C 174.486,377.392 172.82,378.058 171.5,379.5C 171.158,378.662 170.492,378.328 169.5,378.5C 171.205,376.808 173.205,375.475 175.5,374.5 Z"/></g>
<g><path style="opacity:1" fill="#4f538b" d="M 177.5,373.5 C 177.833,373.5 178.167,373.5 178.5,373.5C 178.285,375.179 178.952,376.179 180.5,376.5C 180.5,377.167 180.5,377.833 180.5,378.5C 179.041,378.567 177.708,378.234 176.5,377.5C 175.89,376.609 175.557,375.609 175.5,374.5C 176.167,374.167 176.833,373.833 177.5,373.5 Z"/></g>
<g><path style="opacity:0.714" fill="#a09aad" d="M 203.5,374.5 C 204.5,375.5 205.5,376.5 206.5,377.5C 204.302,377.409 203.969,378.075 205.5,379.5C 203.856,379.19 202.856,378.19 202.5,376.5C 202.328,375.508 202.662,374.842 203.5,374.5 Z"/></g>
<g><path style="opacity:0.004" fill="#fefffe" d="M 272.5,376.5 C 273.833,377.167 273.833,377.167 272.5,376.5 Z"/></g>
<g><path style="opacity:0.757" fill="#948ba4" d="M 206.5,377.5 C 206.833,377.5 207.167,377.5 207.5,377.5C 207.5,377.833 207.5,378.167 207.5,378.5C 207.5,379.167 207.5,379.833 207.5,380.5C 206.508,380.672 205.842,380.338 205.5,379.5C 203.969,378.075 204.302,377.409 206.5,377.5 Z"/></g>
<g><path style="opacity:0.714" fill="#8b88a4" d="M 186.5,375.5 C 187.167,375.5 187.833,375.5 188.5,375.5C 188.557,376.609 188.89,377.609 189.5,378.5C 190.167,379.5 190.833,380.5 191.5,381.5C 190.207,382.645 189.041,382.311 188,380.5C 186.991,378.975 186.491,377.308 186.5,375.5 Z"/></g>
<g><path style="opacity:0.975" fill="#6e6c96" d="M 212.5,377.5 C 213.404,378.209 213.737,379.209 213.5,380.5C 211.5,380.5 209.5,380.5 207.5,380.5C 207.5,379.833 207.5,379.167 207.5,378.5C 209.415,378.784 211.081,378.451 212.5,377.5 Z"/></g>
<g><path style="opacity:1" fill="#8f8cb8" d="M 213.5,375.5 C 214.167,375.5 214.833,375.5 215.5,375.5C 215.842,376.338 216.508,376.672 217.5,376.5C 216.449,377.222 215.782,378.222 215.5,379.5C 215.158,380.338 214.492,380.672 213.5,380.5C 213.737,379.209 213.404,378.209 212.5,377.5C 212.833,376.833 213.167,376.167 213.5,375.5 Z"/></g>
<g><path style="opacity:0.4" fill="#9190a8" d="M 217.5,376.5 C 218.167,376.5 218.833,376.5 219.5,376.5C 220.167,376.5 220.5,376.833 220.5,377.5C 218.833,378.167 217.167,378.833 215.5,379.5C 215.782,378.222 216.449,377.222 217.5,376.5 Z"/></g>
<g><path style="opacity:0.667" fill="#a7a2b6" d="M 252.5,374.5 C 253.11,375.391 253.443,376.391 253.5,377.5C 252.532,379.607 252.198,381.941 252.5,384.5C 252.5,385.167 252.167,385.5 251.5,385.5C 250.098,381.71 250.431,378.044 252.5,374.5 Z"/></g>
<g><path style="opacity:0.663" fill="#6f6d89" d="M 126.5,371.5 C 127.167,372.167 127.833,372.833 128.5,373.5C 128.216,375.415 128.549,377.081 129.5,378.5C 129.5,378.833 129.5,379.167 129.5,379.5C 128.833,380.833 128.167,380.833 127.5,379.5C 127.425,376.794 127.092,374.127 126.5,371.5 Z"/></g>
<g><path style="opacity:0.886" fill="#625e74" d="M 130.5,373.5 C 130.5,373.167 130.5,372.833 130.5,372.5C 131.167,372.5 131.833,372.5 132.5,372.5C 132.5,373.167 132.5,373.833 132.5,374.5C 133.541,377.542 133.541,380.542 132.5,383.5C 131.596,382.791 131.263,381.791 131.5,380.5C 131.802,377.941 131.468,375.607 130.5,373.5 Z"/></g>
<g><path style="opacity:0.824" fill="#706d8c" d="M 156.5,377.5 C 159.084,378.048 160.084,379.715 159.5,382.5C 158.833,381.833 158.167,381.167 157.5,380.5C 156.571,379.685 155.571,378.852 154.5,378C 155.094,377.536 155.761,377.369 156.5,377.5 Z"/></g>
<g><path style="opacity:0.776" fill="#6b6987" d="M 163.5,377.5 C 163.833,377.5 164.167,377.5 164.5,377.5C 164.5,378.167 164.833,378.5 165.5,378.5C 166.5,379.167 167.5,379.833 168.5,380.5C 167.167,381.833 165.833,381.833 164.5,380.5C 163.89,379.609 163.557,378.609 163.5,377.5 Z"/></g>
<g><path style="opacity:0.514" fill="#837f96" d="M 165.5,378.5 C 165.833,378.5 166.167,378.5 166.5,378.5C 167.5,378.5 168.5,378.5 169.5,378.5C 170.492,378.328 171.158,378.662 171.5,379.5C 170.791,380.404 169.791,380.737 168.5,380.5C 167.5,379.833 166.5,379.167 165.5,378.5 Z"/></g>
<g><path style="opacity:0.451" fill="#9d97b3" d="M 191.5,375.5 C 192.167,375.5 192.833,375.5 193.5,375.5C 193.741,377.898 193.074,379.898 191.5,381.5C 190.833,380.5 190.167,379.5 189.5,378.5C 190.906,378.027 191.573,377.027 191.5,375.5 Z"/></g>
<g><path style="opacity:0.349" fill="#aaa6bc" d="M 254.5,376.5 C 255.451,377.919 255.784,379.585 255.5,381.5C 255.167,381.5 254.833,381.5 254.5,381.5C 253.662,381.158 253.328,380.492 253.5,379.5C 254.404,378.791 254.737,377.791 254.5,376.5 Z"/></g>
<g><path style="opacity:0.459" fill="#9998ac" d="M 130.5,373.5 C 131.468,375.607 131.802,377.941 131.5,380.5C 130.833,380.5 130.5,380.833 130.5,381.5C 130.167,381.5 129.833,381.5 129.5,381.5C 128.833,381.5 128.167,381.5 127.5,381.5C 126.167,380.833 126.167,380.167 127.5,379.5C 128.167,380.833 128.833,380.833 129.5,379.5C 130.461,377.735 130.795,375.735 130.5,373.5 Z"/></g>
<g><path style="opacity:0.9" fill="#696896" d="M 176.5,377.5 C 177.708,378.234 179.041,378.567 180.5,378.5C 180.665,381.85 180.498,385.183 180,388.5C 179.802,386.618 179.302,384.952 178.5,383.5C 177.637,381.579 176.971,379.579 176.5,377.5 Z"/></g>
<g><path style="opacity:0.942" fill="#9593b3" d="M 207.5,380.5 C 209.5,380.5 211.5,380.5 213.5,380.5C 212.32,382.014 211.32,383.681 210.5,385.5C 209.893,385.376 209.56,385.043 209.5,384.5C 208.833,383.833 208.167,383.167 207.5,382.5C 207.5,381.833 207.5,381.167 207.5,380.5 Z"/></g>
<g><path style="opacity:0.525" fill="#89889e" d="M 131.5,380.5 C 131.263,381.791 131.596,382.791 132.5,383.5C 132.802,386.059 132.468,388.393 131.5,390.5C 131.66,388.801 131.494,387.134 131,385.5C 130.722,386.416 130.222,387.082 129.5,387.5C 129.5,386.167 129.5,384.833 129.5,383.5C 130.338,383.158 130.672,382.492 130.5,381.5C 130.5,380.833 130.833,380.5 131.5,380.5 Z"/></g>
<g><path style="opacity:0.075" fill="#c4c2da" d="M 253.5,377.5 C 253.5,378.167 253.5,378.833 253.5,379.5C 253.328,380.492 253.662,381.158 254.5,381.5C 254.5,383.167 254.5,384.833 254.5,386.5C 254.167,386.5 253.833,386.5 253.5,386.5C 253.672,385.508 253.338,384.842 252.5,384.5C 252.198,381.941 252.532,379.607 253.5,377.5 Z"/></g>
<g><path style="opacity:0.392" fill="#86849a" d="M 157.5,380.5 C 158.167,381.167 158.833,381.833 159.5,382.5C 159.262,384.404 158.262,385.738 156.5,386.5C 155.833,386.5 155.167,386.5 154.5,386.5C 156.539,385.089 157.539,383.089 157.5,380.5 Z"/></g>
<g><path style="opacity:0.004" fill="#fefffe" d="M 154.5,383.5 C 155.833,384.167 155.833,384.167 154.5,383.5 Z"/></g>
<g><path style="opacity:0.49" fill="#9e9caf" d="M 207.5,382.5 C 208.167,383.167 208.833,383.833 209.5,384.5C 208.041,384.433 206.708,384.766 205.5,385.5C 205.5,384.833 205.5,384.167 205.5,383.5C 205.842,382.662 206.508,382.328 207.5,382.5 Z"/></g>
<g><path style="opacity:0.525" fill="#9b99a6" d="M 205.5,383.5 C 205.5,384.167 205.5,384.833 205.5,385.5C 204.833,385.833 204.167,386.167 203.5,386.5C 203.158,385.662 202.492,385.328 201.5,385.5C 202.514,384.326 203.847,383.66 205.5,383.5 Z"/></g>
<g><path style="opacity:0.927" fill="#67688f" d="M 127.5,381.5 C 128.167,381.5 128.833,381.5 129.5,381.5C 129.5,382.167 129.5,382.833 129.5,383.5C 129.5,384.833 129.5,386.167 129.5,387.5C 129.737,388.791 129.404,389.791 128.5,390.5C 128.802,387.941 128.468,385.607 127.5,383.5C 127.5,382.833 127.5,382.167 127.5,381.5 Z"/></g>
<g><path style="opacity:0.78" fill="#9996a9" d="M 254.5,381.5 C 254.833,381.5 255.167,381.5 255.5,381.5C 254.965,384.238 255.965,386.072 258.5,387C 257.309,387.698 256.309,388.531 255.5,389.5C 255.737,388.209 255.404,387.209 254.5,386.5C 254.5,384.833 254.5,383.167 254.5,381.5 Z"/></g>
<g><path style="opacity:0.498" fill="#9b99a9" d="M 201.5,385.5 C 202.492,385.328 203.158,385.662 203.5,386.5C 202.167,387.167 200.833,387.833 199.5,388.5C 199.158,387.662 198.492,387.328 197.5,387.5C 198.514,386.326 199.847,385.66 201.5,385.5 Z"/></g>
<g><path style="opacity:0.004" fill="#fefffe" d="M 101.5,387.5 C 102.833,388.167 102.833,388.167 101.5,387.5 Z"/></g>
<g><path style="opacity:0.647" fill="#7c7391" d="M 154.5,386.5 C 155.167,386.5 155.833,386.5 156.5,386.5C 156.573,388.027 155.906,389.027 154.5,389.5C 153.662,389.158 153.328,388.492 153.5,387.5C 153.5,386.833 153.833,386.5 154.5,386.5 Z"/></g>
<g><path style="opacity:0.655" fill="#8b86a8" d="M 180.5,376.5 C 180.833,376.5 181.167,376.5 181.5,376.5C 181.5,381.5 181.5,386.5 181.5,391.5C 180.833,394.167 180.167,396.833 179.5,399.5C 179.431,394.146 179.098,388.813 178.5,383.5C 179.302,384.952 179.802,386.618 180,388.5C 180.498,385.183 180.665,381.85 180.5,378.5C 180.5,377.833 180.5,377.167 180.5,376.5 Z"/></g>
<g><path style="opacity:0.561" fill="#8b87a2" d="M 153.5,387.5 C 153.328,388.492 153.662,389.158 154.5,389.5C 154.167,390.5 153.5,391.167 152.5,391.5C 152.158,390.662 151.492,390.328 150.5,390.5C 151.167,389.167 152.167,388.167 153.5,387.5 Z"/></g>
<g><path style="opacity:0.004" fill="#fefffe" d="M 170.5,389.5 C 171.833,390.167 171.833,390.167 170.5,389.5 Z"/></g>
<g><path style="opacity:0.578" fill="#9693a0" d="M 197.5,387.5 C 198.492,387.328 199.158,387.662 199.5,388.5C 197.537,389.82 195.537,391.154 193.5,392.5C 193.5,391.833 193.5,391.167 193.5,390.5C 194.436,389.026 195.77,388.026 197.5,387.5 Z"/></g>
<g><path style="opacity:0.58" fill="#a5a1b0" d="M 248.5,388.5 C 248.842,389.338 249.508,389.672 250.5,389.5C 247.358,390.79 244.025,391.79 240.5,392.5C 239.791,391.596 238.791,391.263 237.5,391.5C 241.011,390.336 244.677,389.336 248.5,388.5 Z"/></g>
<g><path style="opacity:0.667" fill="#a5a2ba" d="M 252.5,384.5 C 253.338,384.842 253.672,385.508 253.5,386.5C 252.024,388.709 252.691,390.042 255.5,390.5C 255.265,391.097 254.765,391.43 254,391.5C 252.697,391.022 251.531,390.355 250.5,389.5C 249.508,389.672 248.842,389.338 248.5,388.5C 250.5,388.5 251.5,387.5 251.5,385.5C 252.167,385.5 252.5,385.167 252.5,384.5 Z"/></g>
<g><path style="opacity:0.702" fill="#8d87ab" d="M 253.5,386.5 C 253.833,386.5 254.167,386.5 254.5,386.5C 255.404,387.209 255.737,388.209 255.5,389.5C 255.5,389.833 255.5,390.167 255.5,390.5C 252.691,390.042 252.024,388.709 253.5,386.5 Z"/></g>
<g><path style="opacity:0.939" fill="#656388" d="M 131.5,390.5 C 131.5,391.167 131.5,391.833 131.5,392.5C 129.973,392.573 128.973,391.906 128.5,390.5C 129.404,389.791 129.737,388.791 129.5,387.5C 130.222,387.082 130.722,386.416 131,385.5C 131.494,387.134 131.66,388.801 131.5,390.5 Z"/></g>
<g><path style="opacity:0.533" fill="#9893a4" d="M 193.5,390.5 C 193.5,391.167 193.5,391.833 193.5,392.5C 192.833,392.833 192.167,393.167 191.5,393.5C 190.508,393.672 189.842,393.338 189.5,392.5C 190.514,391.326 191.847,390.66 193.5,390.5 Z"/></g>
<g><path style="opacity:0.667" fill="#78758c" d="M 150.5,390.5 C 151.492,390.328 152.158,390.662 152.5,391.5C 151.167,392.5 149.833,393.5 148.5,394.5C 146.302,394.591 145.969,393.925 147.5,392.5C 148.29,391.599 149.29,390.932 150.5,390.5 Z"/></g>
<g><path style="opacity:0.757" fill="#85829b" d="M 127.5,383.5 C 128.468,385.607 128.802,387.941 128.5,390.5C 128.973,391.906 129.973,392.573 131.5,392.5C 130.281,394.636 129.448,396.969 129,399.5C 127.661,394.264 127.161,388.93 127.5,383.5 Z"/></g>
<g><path style="opacity:0.631" fill="#a2a1b2" d="M 236.5,391.5 C 235.737,392.268 234.737,392.768 233.5,393C 234.448,393.483 235.448,393.649 236.5,393.5C 235.432,394.434 234.099,394.768 232.5,394.5C 231.791,393.596 230.791,393.263 229.5,393.5C 231.515,392.076 233.848,391.41 236.5,391.5 Z"/></g>
<g><path style="opacity:0.596" fill="#918da7" d="M 236.5,391.5 C 236.833,391.5 237.167,391.5 237.5,391.5C 238.791,391.263 239.791,391.596 240.5,392.5C 239.292,393.234 237.959,393.567 236.5,393.5C 235.448,393.649 234.448,393.483 233.5,393C 234.737,392.768 235.737,392.268 236.5,391.5 Z"/></g>
<g><path style="opacity:0.596" fill="#9791a0" d="M 189.5,392.5 C 189.842,393.338 190.508,393.672 191.5,393.5C 190.71,394.401 189.71,395.068 188.5,395.5C 187.508,395.672 186.842,395.338 186.5,394.5C 186.973,393.094 187.973,392.427 189.5,392.5 Z"/></g>
<g><path style="opacity:0.706" fill="#7e7b90" d="M 147.5,392.5 C 145.969,393.925 146.302,394.591 148.5,394.5C 145.869,396.153 143.203,397.819 140.5,399.5C 140.557,398.391 140.89,397.391 141.5,396.5C 143.223,394.782 145.223,393.449 147.5,392.5 Z"/></g>
<g><path style="opacity:0.714" fill="#928ca5" d="M 229.5,393.5 C 230.791,393.263 231.791,393.596 232.5,394.5C 229.829,396.118 226.829,396.785 223.5,396.5C 222.209,396.737 221.209,396.404 220.5,395.5C 223.37,394.366 226.37,393.7 229.5,393.5 Z"/></g>
<g><path style="opacity:0.569" fill="#9792a5" d="M 186.5,394.5 C 186.842,395.338 187.508,395.672 188.5,395.5C 187.035,396.737 185.368,397.737 183.5,398.5C 182.662,398.158 182.328,397.492 182.5,396.5C 183.833,395.833 185.167,395.167 186.5,394.5 Z"/></g>
<g><path style="opacity:0.624" fill="#9d98b6" d="M 216.5,396.5 C 217.568,395.566 218.901,395.232 220.5,395.5C 221.209,396.404 222.209,396.737 223.5,396.5C 222.432,397.434 221.099,397.768 219.5,397.5C 218.791,396.596 217.791,396.263 216.5,396.5 Z"/></g>
<g><path style="opacity:0.004" fill="#fefffe" d="M 313.5,395.5 C 314.833,396.167 314.833,396.167 313.5,395.5 Z"/></g>
<g><path style="opacity:0.737" fill="#8988a3" d="M 211.5,397.5 C 212.919,396.549 214.585,396.216 216.5,396.5C 217.791,396.263 218.791,396.596 219.5,397.5C 218.432,398.434 217.099,398.768 215.5,398.5C 214.432,397.566 213.099,397.232 211.5,397.5 Z"/></g>
<g><path style="opacity:0.647" fill="#7d7ba0" d="M 211.5,397.5 C 213.099,397.232 214.432,397.566 215.5,398.5C 213.958,399.301 212.292,399.634 210.5,399.5C 208.901,399.768 207.568,399.434 206.5,398.5C 208.042,397.699 209.708,397.366 211.5,397.5 Z"/></g>
<g><path style="opacity:0.8" fill="#858097" d="M 141.5,396.5 C 140.89,397.391 140.557,398.391 140.5,399.5C 140.027,400.906 139.027,401.573 137.5,401.5C 139.031,400.075 138.698,399.409 136.5,399.5C 137.899,398.11 139.566,397.11 141.5,396.5 Z"/></g>
<g><path style="opacity:0.592" fill="#9490a9" d="M 202.5,399.5 C 203.568,398.566 204.901,398.232 206.5,398.5C 207.568,399.434 208.901,399.768 210.5,399.5C 209.081,400.451 207.415,400.784 205.5,400.5C 204.791,399.596 203.791,399.263 202.5,399.5 Z"/></g>
<g><path style="opacity:0.82" fill="#78768d" d="M 134.5,400.5 C 134.842,399.662 135.508,399.328 136.5,399.5C 138.698,399.409 139.031,400.075 137.5,401.5C 137.158,402.338 136.492,402.672 135.5,402.5C 137.031,401.075 136.698,400.409 134.5,400.5 Z"/></g>
<g><path style="opacity:0.894" fill="#706b91" d="M 181.5,391.5 C 181.5,392.833 181.5,394.167 181.5,395.5C 181.025,398.082 181.692,400.082 183.5,401.5C 182.432,402.434 181.099,402.768 179.5,402.5C 178.167,401.5 178.167,400.5 179.5,399.5C 180.167,396.833 180.833,394.167 181.5,391.5 Z"/></g>
<g><path style="opacity:0.737" fill="#817f9c" d="M 194.5,400.5 C 196.948,399.527 199.615,399.194 202.5,399.5C 203.791,399.263 204.791,399.596 205.5,400.5C 203.621,401.341 201.621,401.675 199.5,401.5C 198.081,400.549 196.415,400.216 194.5,400.5 Z"/></g>
<g><path style="opacity:0.031" fill="#a4a1c0" d="M 181.5,395.5 C 182.167,395.5 182.5,395.833 182.5,396.5C 182.328,397.492 182.662,398.158 183.5,398.5C 183.389,399.117 183.056,399.617 182.5,400C 184.81,400.497 187.143,400.663 189.5,400.5C 187.735,401.461 185.735,401.795 183.5,401.5C 181.692,400.082 181.025,398.082 181.5,395.5 Z"/></g>
<g><path style="opacity:0.588" fill="#7d7996" d="M 189.5,400.5 C 191.167,400.5 192.833,400.5 194.5,400.5C 196.415,400.216 198.081,400.549 199.5,401.5C 192.743,403.184 186.076,403.517 179.5,402.5C 181.099,402.768 182.432,402.434 183.5,401.5C 185.735,401.795 187.735,401.461 189.5,400.5 Z"/></g>
<g><path style="opacity:0.58" fill="#8d8a9b" d="M 134.5,400.5 C 133.306,401.272 132.306,402.272 131.5,403.5C 130.833,403.5 130.167,403.5 129.5,403.5C 130.401,401.273 132.067,400.273 134.5,400.5 Z"/></g>
<g><path style="opacity:0.682" fill="#6a6878" d="M 134.5,400.5 C 136.698,400.409 137.031,401.075 135.5,402.5C 134.167,403.167 132.833,403.833 131.5,404.5C 131.5,404.167 131.5,403.833 131.5,403.5C 132.306,402.272 133.306,401.272 134.5,400.5 Z"/></g>
<g><path style="opacity:0.757" fill="#706d81" d="M 129.5,403.5 C 130.167,403.5 130.833,403.5 131.5,403.5C 131.5,403.833 131.5,404.167 131.5,404.5C 131.158,405.338 130.492,405.672 129.5,405.5C 128.508,405.672 127.842,405.338 127.5,404.5C 128.167,404.167 128.833,403.833 129.5,403.5 Z"/></g>
<g><path style="opacity:0.686" fill="#7d7a8c" d="M 127.5,404.5 C 127.842,405.338 128.508,405.672 129.5,405.5C 128.71,406.401 127.71,407.068 126.5,407.5C 126.158,406.662 125.492,406.328 124.5,406.5C 124.973,405.094 125.973,404.427 127.5,404.5 Z"/></g>
<g><path style="opacity:0.769" fill="#706f8b" d="M 124.5,406.5 C 125.492,406.328 126.158,406.662 126.5,407.5C 126.5,407.833 126.5,408.167 126.5,408.5C 126.5,408.833 126.5,409.167 126.5,409.5C 124.097,409.448 121.764,409.781 119.5,410.5C 120.585,408.413 122.251,407.08 124.5,406.5 Z"/></g>
<g><path style="opacity:0.302" fill="#5f5d74" d="M 126.5,409.5 C 126.5,409.167 126.5,408.833 126.5,408.5C 127.978,408.238 129.311,408.571 130.5,409.5C 129.675,410.386 128.675,410.719 127.5,410.5C 127.5,409.833 127.167,409.5 126.5,409.5 Z"/></g>
<g><path style="opacity:0.91" fill="#4f4b7b" d="M 126.5,409.5 C 127.167,409.5 127.5,409.833 127.5,410.5C 126.791,411.404 125.791,411.737 124.5,411.5C 122.585,411.784 120.919,411.451 119.5,410.5C 121.764,409.781 124.097,409.448 126.5,409.5 Z"/></g>
<g><path style="opacity:0.843" fill="#6d6885" d="M 119.5,410.5 C 120.919,411.451 122.585,411.784 124.5,411.5C 122.039,412.531 119.373,413.198 116.5,413.5C 114.585,413.784 112.919,413.451 111.5,412.5C 113.905,411.232 116.572,410.565 119.5,410.5 Z"/></g>
<g><path style="opacity:0.004" fill="#fefffe" d="M 148.5,412.5 C 149.833,413.167 149.833,413.167 148.5,412.5 Z"/></g>
<g><path style="opacity:0.808" fill="#65667b" d="M 101.5,414.5 C 103.265,413.539 105.265,413.205 107.5,413.5C 109.698,413.409 110.031,414.075 108.5,415.5C 107.5,415.5 106.5,415.5 105.5,415.5C 104.432,414.566 103.099,414.232 101.5,414.5 Z"/></g>
<g><path style="opacity:0.686" fill="#838295" d="M 107.5,413.5 C 108.568,412.566 109.901,412.232 111.5,412.5C 112.919,413.451 114.585,413.784 116.5,413.5C 113.997,414.371 111.33,415.037 108.5,415.5C 110.031,414.075 109.698,413.409 107.5,413.5 Z"/></g>
<g><path style="opacity:0.004" fill="#fefffe" d="M 379.5,413.5 C 380.833,414.167 380.833,414.167 379.5,413.5 Z"/></g>
<g><path style="opacity:0.753" fill="#7a798c" d="M 99.5,414.5 C 96.7417,415.967 97.075,416.633 100.5,416.5C 99.4324,417.434 98.099,417.768 96.5,417.5C 94.0521,416.527 91.3854,416.194 88.5,416.5C 91.9736,415.475 95.6403,414.808 99.5,414.5 Z"/></g>
<g><path style="opacity:0.675" fill="#656476" d="M 99.5,414.5 C 100.167,414.5 100.833,414.5 101.5,414.5C 103.099,414.232 104.432,414.566 105.5,415.5C 104.081,416.451 102.415,416.784 100.5,416.5C 97.075,416.633 96.7417,415.967 99.5,414.5 Z"/></g>
<g><path style="opacity:0.122" fill="#8e8892" d="M 85.5,416.5 C 83.5,417.167 81.5,417.833 79.5,418.5C 77.8967,418.688 76.5634,418.188 75.5,417C 78.8168,416.502 82.1501,416.335 85.5,416.5 Z"/></g>
<g><path style="opacity:0.684" fill="#6c6a7c" d="M 85.5,416.5 C 86.5,416.5 87.5,416.5 88.5,416.5C 91.3854,416.194 94.0521,416.527 96.5,417.5C 90.7693,419.1 85.1026,419.434 79.5,418.5C 81.5,417.833 83.5,417.167 85.5,416.5 Z"/></g>
<g><path style="opacity:0.004" fill="#fefffe" d="M 197.5,424.5 C 198.833,425.167 198.833,425.167 197.5,424.5 Z"/></g>
<g><path style="opacity:0.004" fill="#fefffe" d="M 95.5,425.5 C 96.8333,426.167 96.8333,426.167 95.5,425.5 Z"/></g>
<g><path style="opacity:0.004" fill="#fefffe" d="M 357.5,427.5 C 358.833,428.167 358.833,428.167 357.5,427.5 Z"/></g>
<g><path style="opacity:0.004" fill="#fefffe" d="M 85.5,436.5 C 86.8333,437.167 86.8333,437.167 85.5,436.5 Z"/></g>
<g><path style="opacity:0.004" fill="#fefffe" d="M 319.5,444.5 C 320.833,445.167 320.833,445.167 319.5,444.5 Z"/></g>
<g><path style="opacity:0.004" fill="#fefffe" d="M 159.5,448.5 C 160.833,449.167 160.833,449.167 159.5,448.5 Z"/></g>
<g><path style="opacity:0.004" fill="#fefffe" d="M 139.5,457.5 C 140.833,458.167 140.833,458.167 139.5,457.5 Z"/></g>
<g><path style="opacity:0.004" fill="#fefffe" d="M 34.5,467.5 C 35.8333,468.167 35.8333,468.167 34.5,467.5 Z"/></g>
<g><path style="opacity:0.004" fill="#fefffe" d="M 232.5,472.5 C 233.833,473.167 233.833,473.167 232.5,472.5 Z"/></g>
<g><path style="opacity:0.004" fill="#fefffe" d="M 396.5,472.5 C 397.833,473.167 397.833,473.167 396.5,472.5 Z"/></g>
<g><path style="opacity:0.004" fill="#fefffe" d="M 233.5,475.5 C 234.833,476.167 234.833,476.167 233.5,475.5 Z"/></g>
<g><path style="opacity:0.004" fill="#fefffe" d="M 396.5,478.5 C 397.833,479.167 397.833,479.167 396.5,478.5 Z"/></g>
<g><path style="opacity:0.004" fill="#fefffe" d="M 77.5,480.5 C 78.8333,481.167 78.8333,481.167 77.5,480.5 Z"/></g>
<g><path style="opacity:0.004" fill="#fefffe" d="M 100.5,498.5 C 101.833,499.167 101.833,499.167 100.5,498.5 Z"/></g>
<g><path style="opacity:0.004" fill="#fefffe" d="M 270.5,515.5 C 271.833,516.167 271.833,516.167 270.5,515.5 Z"/></g>
<g><path style="opacity:0.004" fill="#fefffe" d="M 5.5,539.5 C 6.83333,540.167 6.83333,540.167 5.5,539.5 Z"/></g>
<g><path style="opacity:0.004" fill="#fefffe" d="M 132.5,543.5 C 133.833,544.167 133.833,544.167 132.5,543.5 Z"/></g>
<g><path style="opacity:0.004" fill="#fefffe" d="M 351.5,545.5 C 352.833,546.167 352.833,546.167 351.5,545.5 Z"/></g>
<g><path style="opacity:0.004" fill="#fefffe" d="M 272.5,547.5 C 273.833,548.167 273.833,548.167 272.5,547.5 Z"/></g>
<g><path style="opacity:0.004" fill="#fefffe" d="M 413.5,563.5 C 414.833,564.167 414.833,564.167 413.5,563.5 Z"/></g>
<g><path style="opacity:0.004" fill="#fefffe" d="M 187.5,574.5 C 188.833,575.167 188.833,575.167 187.5,574.5 Z"/></g>
</svg>
